<svg width="477" height="148" viewBox="0 0 477 148" fill="none" xmlns="http://www.w3.org/2000/svg">
<g clip-path="url(#clip0_35_147)">
<mask id="path-1-outside-1_35_147" maskUnits="userSpaceOnUse" x="14" y="-2" width="466" height="78" fill="black">
<rect fill="white" x="14" y="-2" width="466" height="78"/>
<path d="M46.2508 74C41.8688 74 37.8301 73.1972 34.1347 71.592C30.4919 69.9249 27.2977 67.5787 24.5526 64.5532C21.8601 61.5277 19.7483 57.9775 18.2173 53.9024C16.739 49.8273 16 45.3509 16 40.4731C16 35.5952 16.739 31.1189 18.2173 27.0438C19.7483 22.9687 21.8864 19.4185 24.6318 16.393C27.3769 13.3675 30.5974 11.0521 34.293 9.44681C37.9884 7.77972 42.0537 6.94618 46.4884 6.94618C51.3982 6.94618 55.8063 7.9032 59.7132 9.81727C63.6728 11.7314 66.9988 14.5099 69.6913 18.1527L61.4554 27.0438C59.4491 24.574 57.2583 22.7527 54.8826 21.5795C52.5069 20.3447 49.9199 19.7272 47.1219 19.7272C44.4295 19.7272 41.9745 20.221 39.7572 21.209C37.5399 22.197 35.6127 23.617 33.9763 25.4693C32.3925 27.3217 31.1517 29.5136 30.2543 32.0451C29.4095 34.5765 28.9873 37.386 28.9873 40.4731C28.9873 43.4986 29.4095 46.2771 30.2543 48.8085C31.1517 51.3399 32.3925 53.5627 33.9763 55.4768C35.6127 57.3292 37.5133 58.7492 39.678 59.7372C41.8953 60.7252 44.3237 61.219 46.9635 61.219C49.4976 61.219 51.9525 60.7559 54.3283 59.8298C56.7566 58.8418 59.106 57.2058 61.3762 54.9211L68.6618 65.7572C65.6525 68.4123 62.1416 70.4498 58.1294 71.8698C54.1699 73.2898 50.2104 74 46.2508 74ZM56.9416 63.8123V39.4543H68.6618V65.7572L56.9416 63.8123ZM105.84 72.8886V63.164L105.048 61.0338V43.622C105.048 40.5349 104.23 38.1269 102.594 36.398C101.01 34.6691 98.5549 33.8048 95.2288 33.8048C92.9589 33.8048 90.715 34.2371 88.4976 35.1014C86.3332 35.9041 84.4855 37.0155 82.9543 38.4355L78.5196 28.3404C80.8427 26.4263 83.6407 24.9444 86.9138 23.8949C90.1872 22.8453 93.5132 22.3204 96.8919 22.3204C103.385 22.3204 108.427 24.1109 112.017 27.6921C115.607 31.2733 117.402 36.8611 117.402 44.4556V72.8886H105.84ZM92.8531 73.6295C89.5271 73.6295 86.6763 72.9812 84.3005 71.6846C81.9248 70.3261 80.1034 68.5049 78.8364 66.2203C77.5693 63.9357 76.9358 61.3735 76.9358 58.5332C76.9358 55.5695 77.543 52.9762 78.7572 50.7534C80.0242 48.5307 82.004 46.8017 84.6965 45.567C87.389 44.2703 90.8999 43.622 95.2288 43.622H106.553V52.0501H96.5751C93.6716 52.0501 91.6653 52.6058 90.5566 53.7171C89.5008 54.8285 88.9728 56.2178 88.9728 57.8849C88.9728 59.7372 89.58 61.219 90.7942 62.3304C92.0612 63.38 93.7771 63.9049 95.9416 63.9049C98.0005 63.9049 99.8485 63.3492 101.485 62.2378C103.122 61.0646 104.309 59.3667 105.048 57.1439L106.949 63.8123C106.052 67.023 104.415 69.4618 102.039 71.1289C99.6635 72.796 96.6016 73.6295 92.8531 73.6295ZM183.144 22.3204C186.524 22.3204 189.508 23.1232 192.093 24.7284C194.734 26.2721 196.793 28.6801 198.27 31.9524C199.802 35.1632 200.566 39.2999 200.566 44.363V72.8886H188.213V46.5857C188.213 42.5725 187.5 39.6088 186.074 37.6946C184.649 35.7805 182.644 34.8235 180.056 34.8235C178.263 34.8235 176.651 35.3174 175.225 36.3054C173.8 37.2315 172.691 38.6516 171.899 40.5657C171.107 42.4799 170.712 44.9186 170.712 47.8823V72.8886H158.358V46.5857C158.358 42.5725 157.645 39.6088 156.22 37.6946C154.848 35.7805 152.868 34.8235 150.28 34.8235C148.487 34.8235 146.875 35.3174 145.45 36.3054C144.024 37.2315 142.916 38.6516 142.124 40.5657C141.332 42.4799 140.936 44.9186 140.936 47.8823V72.8886H128.582V23.0613H140.381V36.6758L138.164 32.6934C139.643 29.2974 141.728 26.7352 144.42 25.0063C147.166 23.2158 150.28 22.3204 153.765 22.3204C157.673 22.3204 161.078 23.4936 163.98 25.8398C166.938 28.1244 168.89 31.6438 169.84 36.398L165.485 35.0088C166.91 31.1189 169.181 28.0318 172.295 25.7472C175.463 23.4626 179.08 22.3204 183.144 22.3204ZM233.093 73.6295C228.237 73.6295 223.96 72.5181 220.264 70.2954C216.621 68.0726 213.798 65.047 211.791 61.219C209.785 57.3292 208.781 52.9144 208.781 47.975C208.781 42.9737 209.76 38.5589 211.711 34.7309C213.719 30.841 216.437 27.8155 219.868 25.6546C223.301 23.4318 227.181 22.3204 231.509 22.3204C235.68 22.3204 239.428 23.37 242.754 25.4693C246.134 27.5069 248.8 30.4706 250.752 34.3605C252.706 38.1885 253.682 42.7885 253.682 48.1602C253.682 48.7159 253.657 49.3642 253.603 50.1051C253.552 50.7842 253.498 51.4325 253.445 52.0501H218.838V43.622H246.951L242.2 46.1227C242.2 43.5294 241.753 41.2758 240.853 39.3617C239.957 37.4475 238.715 35.9657 237.132 34.9161C235.548 33.8048 233.701 33.2491 231.588 33.2491C229.478 33.2491 227.603 33.8048 225.966 34.9161C224.382 35.9657 223.143 37.4786 222.244 39.4543C221.347 41.3685 220.897 43.6528 220.897 46.3079V48.5307C220.897 51.2473 221.401 53.6553 222.402 55.7547C223.459 57.7922 224.911 59.3667 226.758 60.4781C228.658 61.5277 230.875 62.0526 233.41 62.0526C235.68 62.0526 237.66 61.6513 239.349 60.8486C241.091 60.0458 242.675 58.8418 244.1 57.2365L250.673 65.572C248.721 68.1652 246.266 70.172 243.308 71.592C240.353 72.9504 236.947 73.6295 233.093 73.6295ZM262.78 72.8886V8.05757H286.775C291.736 8.05757 296.012 9.01459 299.604 10.9287C303.193 12.781 305.964 15.4668 307.919 18.9862C309.87 22.5056 310.849 26.7041 310.849 31.582C310.849 36.398 309.87 40.5657 307.919 44.0851C305.964 47.6045 303.193 50.3211 299.604 52.2353C296.012 54.0876 291.736 55.0138 286.775 55.0138H269.907L275.609 48.2528V72.8886H262.78ZM275.609 49.9199L269.907 42.7885H286.062C290.022 42.7885 292.977 41.8005 294.931 39.8248C296.883 37.8491 297.861 35.1014 297.861 31.582C297.861 28.0007 296.883 25.2223 294.931 23.2466C292.977 21.2708 290.022 20.2829 286.062 20.2829H269.907L275.609 13.1514V49.9199ZM339.332 73.6295C334.79 73.6295 330.751 72.5181 327.216 70.2954C323.731 68.0726 320.959 65.047 318.901 61.219C316.893 57.3292 315.891 52.9144 315.891 47.975C315.891 42.9737 316.893 38.5589 318.901 34.7309C320.959 30.841 323.731 27.8155 327.216 25.6546C330.751 23.4318 334.79 22.3204 339.332 22.3204C343.818 22.3204 347.831 23.4318 351.369 25.6546C354.904 27.8155 357.676 30.8103 359.684 34.6383C361.689 38.4663 362.693 42.9119 362.693 47.975C362.693 52.9144 361.689 57.3292 359.684 61.219C357.676 65.047 354.904 68.0726 351.369 70.2954C347.831 72.5181 343.818 73.6295 339.332 73.6295ZM339.332 61.7747C341.391 61.7747 343.238 61.219 344.875 60.1076C346.51 58.9962 347.805 57.4218 348.755 55.3842C349.706 53.2848 350.181 50.8153 350.181 47.975C350.181 45.0731 349.706 42.6033 348.755 40.5657C347.805 38.5282 346.51 36.9537 344.875 35.8423C343.238 34.7309 341.391 34.1752 339.332 34.1752C337.273 34.1752 335.423 34.7309 333.788 35.8423C332.151 36.9537 330.83 38.5282 329.829 40.5657C328.879 42.6033 328.403 45.0731 328.403 47.975C328.403 50.8153 328.879 53.2848 329.829 55.3842C330.83 57.4218 332.151 58.9962 333.788 60.1076C335.423 61.219 337.273 61.7747 339.332 61.7747ZM370.95 72.8886V23.0613H383.303V72.8886H370.95ZM377.127 16.1151C374.856 16.1151 373.009 15.3434 371.583 13.7997C370.158 12.2561 369.445 10.3422 369.445 8.05757C369.445 5.77304 370.158 3.859 371.583 2.31539C373.009 0.771789 374.856 0 377.127 0C379.398 0 381.245 0.740926 382.67 2.22278C384.095 3.64288 384.808 5.49519 384.808 7.77972C384.808 10.1877 384.095 12.1945 382.67 13.7997C381.298 15.3434 379.449 16.1151 377.127 16.1151ZM420.665 22.3204C424.042 22.3204 427.052 23.1232 429.693 24.7284C432.385 26.2721 434.496 28.6801 436.028 31.9524C437.558 35.1632 438.325 39.2999 438.325 44.363V72.8886H425.971V46.5857C425.971 42.5725 425.205 39.6088 423.674 37.6946C422.195 35.7805 420.083 34.8235 417.339 34.8235C415.385 34.8235 413.617 35.3174 412.033 36.3054C410.501 37.2315 409.287 38.6826 408.391 40.6583C407.545 42.634 407.124 45.1657 407.124 48.2528V72.8886H394.77V23.0613H406.569V36.8611L404.352 32.6934C405.882 29.3592 408.074 26.7967 410.925 25.0063C413.776 23.2158 417.022 22.3204 420.665 22.3204ZM466.943 73.6295C461.928 73.6295 458.022 72.1477 455.223 69.184C452.425 66.1584 451.025 61.6821 451.025 55.7547V12.04H463.379V55.5695C463.379 57.6688 463.854 59.3049 464.805 60.4781C465.755 61.5895 467.05 62.1452 468.685 62.1452C470.639 62.1452 472.302 61.5276 473.674 60.2929L477 70.4806C475.733 71.5302 474.203 72.3329 472.407 72.8886C470.665 73.3825 468.843 73.6295 466.943 73.6295ZM444.453 35.2866V24.1727H473.991V35.2866H444.453Z"/>
</mask>
<path d="M46.2508 74C41.8688 74 37.8301 73.1972 34.1347 71.592C30.4919 69.9249 27.2977 67.5787 24.5526 64.5532C21.8601 61.5277 19.7483 57.9775 18.2173 53.9024C16.739 49.8273 16 45.3509 16 40.4731C16 35.5952 16.739 31.1189 18.2173 27.0438C19.7483 22.9687 21.8864 19.4185 24.6318 16.393C27.3769 13.3675 30.5974 11.0521 34.293 9.44681C37.9884 7.77972 42.0537 6.94618 46.4884 6.94618C51.3982 6.94618 55.8063 7.9032 59.7132 9.81727C63.6728 11.7314 66.9988 14.5099 69.6913 18.1527L61.4554 27.0438C59.4491 24.574 57.2583 22.7527 54.8826 21.5795C52.5069 20.3447 49.9199 19.7272 47.1219 19.7272C44.4295 19.7272 41.9745 20.221 39.7572 21.209C37.5399 22.197 35.6127 23.617 33.9763 25.4693C32.3925 27.3217 31.1517 29.5136 30.2543 32.0451C29.4095 34.5765 28.9873 37.386 28.9873 40.4731C28.9873 43.4986 29.4095 46.2771 30.2543 48.8085C31.1517 51.3399 32.3925 53.5627 33.9763 55.4768C35.6127 57.3292 37.5133 58.7492 39.678 59.7372C41.8953 60.7252 44.3237 61.219 46.9635 61.219C49.4976 61.219 51.9525 60.7559 54.3283 59.8298C56.7566 58.8418 59.106 57.2058 61.3762 54.9211L68.6618 65.7572C65.6525 68.4123 62.1416 70.4498 58.1294 71.8698C54.1699 73.2898 50.2104 74 46.2508 74ZM56.9416 63.8123V39.4543H68.6618V65.7572L56.9416 63.8123ZM105.84 72.8886V63.164L105.048 61.0338V43.622C105.048 40.5349 104.23 38.1269 102.594 36.398C101.01 34.6691 98.5549 33.8048 95.2288 33.8048C92.9589 33.8048 90.715 34.2371 88.4976 35.1014C86.3332 35.9041 84.4855 37.0155 82.9543 38.4355L78.5196 28.3404C80.8427 26.4263 83.6407 24.9444 86.9138 23.8949C90.1872 22.8453 93.5132 22.3204 96.8919 22.3204C103.385 22.3204 108.427 24.1109 112.017 27.6921C115.607 31.2733 117.402 36.8611 117.402 44.4556V72.8886H105.84ZM92.8531 73.6295C89.5271 73.6295 86.6763 72.9812 84.3005 71.6846C81.9248 70.3261 80.1034 68.5049 78.8364 66.2203C77.5693 63.9357 76.9358 61.3735 76.9358 58.5332C76.9358 55.5695 77.543 52.9762 78.7572 50.7534C80.0242 48.5307 82.004 46.8017 84.6965 45.567C87.389 44.2703 90.8999 43.622 95.2288 43.622H106.553V52.0501H96.5751C93.6716 52.0501 91.6653 52.6058 90.5566 53.7171C89.5008 54.8285 88.9728 56.2178 88.9728 57.8849C88.9728 59.7372 89.58 61.219 90.7942 62.3304C92.0612 63.38 93.7771 63.9049 95.9416 63.9049C98.0005 63.9049 99.8485 63.3492 101.485 62.2378C103.122 61.0646 104.309 59.3667 105.048 57.1439L106.949 63.8123C106.052 67.023 104.415 69.4618 102.039 71.1289C99.6635 72.796 96.6016 73.6295 92.8531 73.6295ZM183.144 22.3204C186.524 22.3204 189.508 23.1232 192.093 24.7284C194.734 26.2721 196.793 28.6801 198.27 31.9524C199.802 35.1632 200.566 39.2999 200.566 44.363V72.8886H188.213V46.5857C188.213 42.5725 187.5 39.6088 186.074 37.6946C184.649 35.7805 182.644 34.8235 180.056 34.8235C178.263 34.8235 176.651 35.3174 175.225 36.3054C173.8 37.2315 172.691 38.6516 171.899 40.5657C171.107 42.4799 170.712 44.9186 170.712 47.8823V72.8886H158.358V46.5857C158.358 42.5725 157.645 39.6088 156.22 37.6946C154.848 35.7805 152.868 34.8235 150.28 34.8235C148.487 34.8235 146.875 35.3174 145.45 36.3054C144.024 37.2315 142.916 38.6516 142.124 40.5657C141.332 42.4799 140.936 44.9186 140.936 47.8823V72.8886H128.582V23.0613H140.381V36.6758L138.164 32.6934C139.643 29.2974 141.728 26.7352 144.42 25.0063C147.166 23.2158 150.28 22.3204 153.765 22.3204C157.673 22.3204 161.078 23.4936 163.98 25.8398C166.938 28.1244 168.89 31.6438 169.84 36.398L165.485 35.0088C166.91 31.1189 169.181 28.0318 172.295 25.7472C175.463 23.4626 179.08 22.3204 183.144 22.3204ZM233.093 73.6295C228.237 73.6295 223.96 72.5181 220.264 70.2954C216.621 68.0726 213.798 65.047 211.791 61.219C209.785 57.3292 208.781 52.9144 208.781 47.975C208.781 42.9737 209.76 38.5589 211.711 34.7309C213.719 30.841 216.437 27.8155 219.868 25.6546C223.301 23.4318 227.181 22.3204 231.509 22.3204C235.68 22.3204 239.428 23.37 242.754 25.4693C246.134 27.5069 248.8 30.4706 250.752 34.3605C252.706 38.1885 253.682 42.7885 253.682 48.1602C253.682 48.7159 253.657 49.3642 253.603 50.1051C253.552 50.7842 253.498 51.4325 253.445 52.0501H218.838V43.622H246.951L242.2 46.1227C242.2 43.5294 241.753 41.2758 240.853 39.3617C239.957 37.4475 238.715 35.9657 237.132 34.9161C235.548 33.8048 233.701 33.2491 231.588 33.2491C229.478 33.2491 227.603 33.8048 225.966 34.9161C224.382 35.9657 223.143 37.4786 222.244 39.4543C221.347 41.3685 220.897 43.6528 220.897 46.3079V48.5307C220.897 51.2473 221.401 53.6553 222.402 55.7547C223.459 57.7922 224.911 59.3667 226.758 60.4781C228.658 61.5277 230.875 62.0526 233.41 62.0526C235.68 62.0526 237.66 61.6513 239.349 60.8486C241.091 60.0458 242.675 58.8418 244.1 57.2365L250.673 65.572C248.721 68.1652 246.266 70.172 243.308 71.592C240.353 72.9504 236.947 73.6295 233.093 73.6295ZM262.78 72.8886V8.05757H286.775C291.736 8.05757 296.012 9.01459 299.604 10.9287C303.193 12.781 305.964 15.4668 307.919 18.9862C309.87 22.5056 310.849 26.7041 310.849 31.582C310.849 36.398 309.87 40.5657 307.919 44.0851C305.964 47.6045 303.193 50.3211 299.604 52.2353C296.012 54.0876 291.736 55.0138 286.775 55.0138H269.907L275.609 48.2528V72.8886H262.78ZM275.609 49.9199L269.907 42.7885H286.062C290.022 42.7885 292.977 41.8005 294.931 39.8248C296.883 37.8491 297.861 35.1014 297.861 31.582C297.861 28.0007 296.883 25.2223 294.931 23.2466C292.977 21.2708 290.022 20.2829 286.062 20.2829H269.907L275.609 13.1514V49.9199ZM339.332 73.6295C334.79 73.6295 330.751 72.5181 327.216 70.2954C323.731 68.0726 320.959 65.047 318.901 61.219C316.893 57.3292 315.891 52.9144 315.891 47.975C315.891 42.9737 316.893 38.5589 318.901 34.7309C320.959 30.841 323.731 27.8155 327.216 25.6546C330.751 23.4318 334.79 22.3204 339.332 22.3204C343.818 22.3204 347.831 23.4318 351.369 25.6546C354.904 27.8155 357.676 30.8103 359.684 34.6383C361.689 38.4663 362.693 42.9119 362.693 47.975C362.693 52.9144 361.689 57.3292 359.684 61.219C357.676 65.047 354.904 68.0726 351.369 70.2954C347.831 72.5181 343.818 73.6295 339.332 73.6295ZM339.332 61.7747C341.391 61.7747 343.238 61.219 344.875 60.1076C346.51 58.9962 347.805 57.4218 348.755 55.3842C349.706 53.2848 350.181 50.8153 350.181 47.975C350.181 45.0731 349.706 42.6033 348.755 40.5657C347.805 38.5282 346.51 36.9537 344.875 35.8423C343.238 34.7309 341.391 34.1752 339.332 34.1752C337.273 34.1752 335.423 34.7309 333.788 35.8423C332.151 36.9537 330.83 38.5282 329.829 40.5657C328.879 42.6033 328.403 45.0731 328.403 47.975C328.403 50.8153 328.879 53.2848 329.829 55.3842C330.83 57.4218 332.151 58.9962 333.788 60.1076C335.423 61.219 337.273 61.7747 339.332 61.7747ZM370.95 72.8886V23.0613H383.303V72.8886H370.95ZM377.127 16.1151C374.856 16.1151 373.009 15.3434 371.583 13.7997C370.158 12.2561 369.445 10.3422 369.445 8.05757C369.445 5.77304 370.158 3.859 371.583 2.31539C373.009 0.771789 374.856 0 377.127 0C379.398 0 381.245 0.740926 382.67 2.22278C384.095 3.64288 384.808 5.49519 384.808 7.77972C384.808 10.1877 384.095 12.1945 382.67 13.7997C381.298 15.3434 379.449 16.1151 377.127 16.1151ZM420.665 22.3204C424.042 22.3204 427.052 23.1232 429.693 24.7284C432.385 26.2721 434.496 28.6801 436.028 31.9524C437.558 35.1632 438.325 39.2999 438.325 44.363V72.8886H425.971V46.5857C425.971 42.5725 425.205 39.6088 423.674 37.6946C422.195 35.7805 420.083 34.8235 417.339 34.8235C415.385 34.8235 413.617 35.3174 412.033 36.3054C410.501 37.2315 409.287 38.6826 408.391 40.6583C407.545 42.634 407.124 45.1657 407.124 48.2528V72.8886H394.77V23.0613H406.569V36.8611L404.352 32.6934C405.882 29.3592 408.074 26.7967 410.925 25.0063C413.776 23.2158 417.022 22.3204 420.665 22.3204ZM466.943 73.6295C461.928 73.6295 458.022 72.1477 455.223 69.184C452.425 66.1584 451.025 61.6821 451.025 55.7547V12.04H463.379V55.5695C463.379 57.6688 463.854 59.3049 464.805 60.4781C465.755 61.5895 467.05 62.1452 468.685 62.1452C470.639 62.1452 472.302 61.5276 473.674 60.2929L477 70.4806C475.733 71.5302 474.203 72.3329 472.407 72.8886C470.665 73.3825 468.843 73.6295 466.943 73.6295ZM444.453 35.2866V24.1727H473.991V35.2866H444.453Z" fill="white"/>
<path d="M34.1347 71.592L33.3024 73.4106L33.32 73.4187L33.3378 73.4264L34.1347 71.592ZM24.5526 64.5532L23.0585 65.8828L23.0649 65.89L23.0714 65.8971L24.5526 64.5532ZM18.2173 53.9024L16.3372 54.5844L16.3411 54.5951L16.3451 54.6057L18.2173 53.9024ZM18.2173 27.0438L16.3451 26.3404L16.3411 26.3511L16.3372 26.3618L18.2173 27.0438ZM24.6318 16.393L26.1129 17.737L26.113 17.7369L24.6318 16.393ZM34.293 9.44681L35.0898 11.2812L35.1027 11.2756L35.1155 11.2699L34.293 9.44681ZM59.7132 9.81727L58.8333 11.6133L58.8428 11.6179L59.7132 9.81727ZM69.6913 18.1527L71.1585 19.5118L72.2844 18.2963L71.2996 16.9639L69.6913 18.1527ZM61.4554 27.0438L59.9031 28.3048L61.3564 30.0939L62.9227 28.4029L61.4554 27.0438ZM54.8826 21.5795L53.9603 23.3541L53.9786 23.3636L53.997 23.3727L54.8826 21.5795ZM33.9763 25.4693L32.4774 24.1452L32.4667 24.1573L32.4562 24.1696L33.9763 25.4693ZM30.2543 32.0451L28.3693 31.3768L28.3631 31.3943L28.3572 31.4119L30.2543 32.0451ZM30.2543 48.8085L28.3572 49.4416L28.3631 49.4593L28.3693 49.4768L30.2543 48.8085ZM33.9763 55.4768L32.4354 56.7518L32.456 56.7768L32.4774 56.801L33.9763 55.4768ZM39.678 59.7372L38.8476 61.5566L38.8558 61.5604L38.864 61.564L39.678 59.7372ZM54.3283 59.8298L55.0547 61.6932L55.0684 61.6879L55.082 61.6823L54.3283 59.8298ZM61.3762 54.9211L63.036 53.8052L61.6758 51.7822L59.9576 53.5114L61.3762 54.9211ZM68.6618 65.7572L69.985 67.2569L70.6618 66.6598V65.7572H68.6618ZM58.1294 71.8698L57.4621 69.9844L57.4543 69.9872L58.1294 71.8698ZM56.9416 63.8123H54.9416V65.5077L56.6141 65.7853L56.9416 63.8123ZM56.9416 39.4543V37.4543H54.9416V39.4543H56.9416ZM68.6618 39.4543H70.6618V37.4543H68.6618V39.4543ZM105.84 72.8886H103.84V74.8886H105.84V72.8886ZM105.84 63.164H107.84V62.8042L107.715 62.467L105.84 63.164ZM105.048 61.0338H103.048V61.3935L103.174 61.7307L105.048 61.0338ZM102.594 36.398L101.119 37.749L101.13 37.761L101.141 37.7729L102.594 36.398ZM88.4976 35.1014L89.1931 36.9766L89.2086 36.9708L89.224 36.9648L88.4976 35.1014ZM82.9543 38.4355L81.1232 39.2399L82.2536 41.8131L84.3143 39.902L82.9543 38.4355ZM78.5196 28.3404L77.2478 26.7969L76.0799 27.7593L76.6885 29.1448L78.5196 28.3404ZM86.9138 23.8949L86.3032 21.9904L86.3031 21.9904L86.9138 23.8949ZM112.017 27.6921L110.605 29.108L110.605 29.1081L112.017 27.6921ZM117.402 72.8886V74.8886H119.402V72.8886H117.402ZM84.3005 71.6846L83.3078 73.4208L83.325 73.4306L83.3424 73.4402L84.3005 71.6846ZM78.7572 50.7534L77.0197 49.763L77.0107 49.7788L77.002 49.7947L78.7572 50.7534ZM84.6965 45.567L85.5302 47.3849L85.5473 47.3771L85.5643 47.3689L84.6965 45.567ZM106.553 43.622H108.553V41.622H106.553V43.622ZM106.553 52.0501V54.0501H108.553V52.0501H106.553ZM90.5566 53.7171L89.1407 52.3047L89.1234 52.322L89.1066 52.3397L90.5566 53.7171ZM90.7942 62.3304L89.4438 63.8057L89.4803 63.8391L89.5183 63.8706L90.7942 62.3304ZM101.485 62.2378L102.609 63.8923L102.63 63.8781L102.65 63.8633L101.485 62.2378ZM105.048 57.1439L106.972 56.5957L105.195 50.3629L103.151 56.5129L105.048 57.1439ZM106.949 63.8123L108.875 64.3506L109.027 63.807L108.872 63.2641L106.949 63.8123ZM192.093 24.7284L191.038 26.4275L191.061 26.4416L191.084 26.4551L192.093 24.7284ZM198.27 31.9524L196.447 32.7751L196.456 32.7946L196.465 32.814L198.27 31.9524ZM200.566 72.8886V74.8886H202.566V72.8886H200.566ZM188.213 72.8886H186.213V74.8886H188.213V72.8886ZM175.225 36.3054L176.315 37.9825L176.34 37.9662L176.365 37.9491L175.225 36.3054ZM170.712 72.8886V74.8886H172.712V72.8886H170.712ZM158.358 72.8886H156.358V74.8886H158.358V72.8886ZM156.22 37.6946L154.594 38.8597L154.605 38.8745L154.616 38.8891L156.22 37.6946ZM145.45 36.3054L146.539 37.9825L146.564 37.9662L146.589 37.9491L145.45 36.3054ZM140.936 72.8886V74.8886H142.936V72.8886H140.936ZM128.582 72.8886H126.582V74.8886H128.582V72.8886ZM128.582 23.0613V21.0613H126.582V23.0613H128.582ZM140.381 23.0613H142.381V21.0613H140.381V23.0613ZM140.381 36.6758L138.634 37.6488L142.381 44.3793V36.6758H140.381ZM138.164 32.6934L136.33 31.8948L135.935 32.8019L136.417 33.6663L138.164 32.6934ZM144.42 25.0063L145.501 26.6892L145.513 26.6816L144.42 25.0063ZM163.98 25.8398L162.723 27.3951L162.74 27.4091L162.758 27.4227L163.98 25.8398ZM169.84 36.398L169.233 38.3034L172.467 39.3351L171.802 36.006L169.84 36.398ZM165.485 35.0088L163.607 34.3206L162.889 36.28L164.877 36.9142L165.485 35.0088ZM172.295 25.7472L171.125 24.1251L171.119 24.1298L171.112 24.1346L172.295 25.7472ZM220.264 70.2954L219.222 72.0027L219.233 72.0093L220.264 70.2954ZM211.791 61.219L210.013 62.1355L210.019 62.148L211.791 61.219ZM211.711 34.7309L209.934 33.8136L209.93 33.8224L211.711 34.7309ZM219.868 25.6546L220.934 27.3469L220.944 27.3402L220.955 27.3334L219.868 25.6546ZM242.754 25.4693L241.687 27.1606L241.704 27.1715L241.721 27.1821L242.754 25.4693ZM250.752 34.3605L248.965 35.2574L248.971 35.2698L250.752 34.3605ZM253.603 50.1051L255.598 50.2556L255.598 50.2494L253.603 50.1051ZM253.445 52.0501V54.0501H255.279L255.437 52.2229L253.445 52.0501ZM218.838 52.0501H216.838V54.0501H218.838V52.0501ZM218.838 43.622V41.622H216.838V43.622H218.838ZM246.951 43.622L247.883 45.3919L246.951 41.622V43.622ZM242.2 46.1227H240.2V49.4353L243.131 47.8925L242.2 46.1227ZM240.853 39.3617L239.042 40.2101L239.043 40.212L240.853 39.3617ZM237.132 34.9161L235.983 36.5533L236.005 36.5686L236.027 36.5833L237.132 34.9161ZM225.966 34.9161L227.07 36.5833L227.08 36.5772L227.089 36.5709L225.966 34.9161ZM222.244 39.4543L224.055 40.3028L224.059 40.2927L224.064 40.2827L222.244 39.4543ZM222.402 55.7547L220.597 56.6158L220.611 56.6461L220.627 56.676L222.402 55.7547ZM226.758 60.4781L225.726 62.1918L225.758 62.2109L225.791 62.2289L226.758 60.4781ZM239.349 60.8486L238.512 59.0321L238.501 59.0371L238.49 59.0423L239.349 60.8486ZM244.1 57.2365L245.671 55.9982L244.191 54.1219L242.605 55.9086L244.1 57.2365ZM250.673 65.572L252.271 66.7747L253.198 65.5435L252.244 64.3336L250.673 65.572ZM243.308 71.592L244.144 73.4092L244.159 73.4022L244.174 73.395L243.308 71.592ZM262.78 72.8886H260.78V74.8886H262.78V72.8886ZM262.78 8.05757V6.05757H260.78V8.05757H262.78ZM299.604 10.9287L298.663 12.6937L298.675 12.6999L298.686 12.7059L299.604 10.9287ZM307.919 18.9862L309.668 18.0162L309.667 18.0154L307.919 18.9862ZM307.919 44.0851L309.667 45.056L309.668 45.0551L307.919 44.0851ZM299.604 52.2353L300.52 54.0128L300.533 54.0065L300.545 54L299.604 52.2353ZM269.907 55.0138L268.378 53.7244L265.604 57.0138H269.907V55.0138ZM275.609 48.2528H277.609V42.779L274.08 46.9634L275.609 48.2528ZM275.609 72.8886V74.8886H277.609V72.8886H275.609ZM275.609 49.9199L274.047 51.1688L277.609 55.6241V49.9199H275.609ZM269.907 42.7885V40.7885H265.747L268.345 44.0374L269.907 42.7885ZM294.931 39.8248L296.353 41.2312L296.354 41.2304L294.931 39.8248ZM294.931 23.2466L296.354 21.841L296.353 21.8401L294.931 23.2466ZM269.907 20.2829L268.345 19.0339L265.747 22.2829H269.907V20.2829ZM275.609 13.1514H277.609V7.44723L274.047 11.9025L275.609 13.1514ZM327.216 70.2954L326.14 71.9815L326.151 71.9886L327.216 70.2954ZM318.901 61.219L317.123 62.1363L317.131 62.1514L317.139 62.1664L318.901 61.219ZM318.901 34.7309L317.133 33.7953L317.129 33.802L318.901 34.7309ZM327.216 25.6546L328.27 27.3543L328.28 27.3478L327.216 25.6546ZM351.369 25.6546L350.305 27.3481L350.315 27.3546L350.326 27.3611L351.369 25.6546ZM359.684 34.6383L361.455 33.7102L361.455 33.7094L359.684 34.6383ZM359.684 61.219L361.455 62.148L361.461 62.1355L359.684 61.219ZM351.369 70.2954L352.433 71.9889L352.433 71.9886L351.369 70.2954ZM344.875 60.1076L345.998 61.7624L345.999 61.7617L344.875 60.1076ZM348.755 55.3842L350.568 56.2296L350.573 56.2193L350.577 56.209L348.755 55.3842ZM344.875 35.8423L345.999 34.1882L345.998 34.1875L344.875 35.8423ZM333.788 35.8423L334.912 37.4971L334.913 37.4964L333.788 35.8423ZM329.829 40.5657L328.034 39.6835L328.025 39.7018L328.016 39.7204L329.829 40.5657ZM329.829 55.3842L328.007 56.209L328.02 56.2379L328.034 56.2665L329.829 55.3842ZM333.788 60.1076L334.913 58.4536L334.912 58.4528L333.788 60.1076ZM370.95 72.8886H368.95V74.8886H370.95V72.8886ZM370.95 23.0613V21.0613H368.95V23.0613H370.95ZM383.303 23.0613H385.303V21.0613H383.303V23.0613ZM383.303 72.8886V74.8886H385.303V72.8886H383.303ZM382.67 2.22278L381.229 3.60929L381.243 3.62462L381.258 3.63964L382.67 2.22278ZM382.67 13.7997L384.165 15.1283L384.165 15.1277L382.67 13.7997ZM429.693 24.7284L428.654 26.4375L428.676 26.4508L428.698 26.4635L429.693 24.7284ZM436.028 31.9524L434.217 32.8007L434.223 32.8129L436.028 31.9524ZM438.325 72.8886V74.8886H440.325V72.8886H438.325ZM425.971 72.8886H423.971V74.8886H425.971V72.8886ZM423.674 37.6946L422.092 38.9175L422.102 38.9305L422.112 38.9435L423.674 37.6946ZM412.033 36.3054L413.068 38.0171L413.08 38.0098L413.092 38.0023L412.033 36.3054ZM408.391 40.6583L406.569 39.8317L406.56 39.8515L406.552 39.8715L408.391 40.6583ZM407.124 72.8886V74.8886H409.124V72.8886H407.124ZM394.77 72.8886H392.77V74.8886H394.77V72.8886ZM394.77 23.0613V21.0613H392.77V23.0613H394.77ZM406.569 23.0613H408.569V21.0613H406.569V23.0613ZM406.569 36.8611L404.804 37.8005L408.569 36.8611H406.569ZM404.352 32.6934L402.534 31.8591L402.121 32.7588L402.586 33.6327L404.352 32.6934ZM455.223 69.184L453.754 70.5417L453.761 70.5496L453.769 70.5574L455.223 69.184ZM451.025 12.04V10.04H449.025V12.04H451.025ZM463.379 12.04H465.379V10.04H463.379V12.04ZM464.805 60.4781L463.251 61.7369L463.267 61.7576L463.285 61.7778L464.805 60.4781ZM473.674 60.2929L475.575 59.6722L474.621 56.7496L472.336 58.8063L473.674 60.2929ZM477 70.4806L478.276 72.0208L479.323 71.153L478.901 69.8599L477 70.4806ZM472.407 72.8886L472.952 74.8128L472.975 74.8063L472.998 74.7992L472.407 72.8886ZM444.453 35.2866H442.453V37.2866H444.453V35.2866ZM444.453 24.1727V22.1727H442.453V24.1727H444.453ZM473.991 24.1727H475.991V22.1727H473.991V24.1727ZM473.991 35.2866V37.2866H475.991V35.2866H473.991ZM46.2508 72C42.1187 72 38.3542 71.2443 34.9315 69.7576L33.3378 73.4264C37.306 75.1501 41.6188 76 46.2508 76V72ZM34.9669 69.7734C31.5752 68.2212 28.6006 66.0383 26.0338 63.2093L23.0714 65.8971C25.9948 69.1192 29.4085 71.6286 33.3024 73.4106L34.9669 69.7734ZM26.0466 63.2236C23.5295 60.3951 21.5405 57.0612 20.0896 53.199L16.3451 54.6057C17.956 58.8938 20.1907 62.6602 23.0585 65.8828L26.0466 63.2236ZM20.0974 53.2203C18.7078 49.3895 18 45.1473 18 40.4731H14C14 45.5546 14.7703 50.2651 16.3372 54.5844L20.0974 53.2203ZM18 40.4731C18 35.7989 18.7078 31.5567 20.0974 27.7258L16.3372 26.3618C14.7703 30.6811 14 35.3915 14 40.4731H18ZM20.0896 27.7472C21.5376 23.8928 23.5481 20.5636 26.1129 17.737L23.1507 15.049C20.2248 18.2735 17.9589 22.0447 16.3451 26.3404L20.0896 27.7472ZM26.113 17.7369C28.6701 14.9186 31.6582 12.7718 35.0898 11.2812L33.4962 7.61239C29.5366 9.33233 26.0837 11.8163 23.1506 15.0491L26.113 17.7369ZM35.1155 11.2699C38.5289 9.73 42.3104 8.94618 46.4884 8.94618V4.94618C41.7971 4.94618 37.448 5.82945 33.4706 7.62373L35.1155 11.2699ZM46.4884 8.94618C51.1327 8.94618 55.2337 9.84978 58.8333 11.6133L60.5932 8.02123C56.379 5.95662 51.6638 4.94618 46.4884 4.94618V8.94618ZM58.8428 11.6179C62.5014 13.3866 65.5771 15.9513 68.0829 19.3415L71.2996 16.9639C68.4204 13.0685 64.8441 10.0762 60.5837 8.01664L58.8428 11.6179ZM68.224 16.7936L59.9882 25.6847L62.9227 28.4029L71.1585 19.5118L68.224 16.7936ZM63.0078 25.7828C60.8559 23.1338 58.4484 21.1098 55.7682 19.7862L53.997 23.3727C56.0683 24.3956 58.0423 26.0142 59.9031 28.3048L63.0078 25.7828ZM55.805 19.8049C53.1314 18.4153 50.2261 17.7272 47.1219 17.7272V21.7272C49.6137 21.7272 51.8824 22.2741 53.9603 23.3541L55.805 19.8049ZM47.1219 17.7272C44.1798 17.7272 41.4435 18.2681 38.9432 19.3822L40.5712 23.0359C42.5056 22.174 44.6791 21.7272 47.1219 21.7272V17.7272ZM38.9432 19.3822C36.4595 20.4888 34.3001 22.0821 32.4774 24.1452L35.4751 26.7935C36.9254 25.152 38.6202 23.9052 40.5712 23.0359L38.9432 19.3822ZM32.4562 24.1696C30.6976 26.2263 29.3403 28.6378 28.3693 31.3768L32.1394 32.7133C32.9632 30.3895 34.0874 28.417 35.4964 26.7691L32.4562 24.1696ZM28.3572 31.4119C27.4345 34.1767 26.9873 37.2039 26.9873 40.4731H30.9873C30.9873 37.568 31.3846 34.9762 32.1515 32.6782L28.3572 31.4119ZM26.9873 40.4731C26.9873 43.6854 27.4358 46.6808 28.3572 49.4416L32.1515 48.1754C31.3833 45.8734 30.9873 43.3119 30.9873 40.4731H26.9873ZM28.3693 49.4768C29.3386 52.2111 30.6906 54.6431 32.4354 56.7518L35.5172 54.2019C34.0944 52.4823 32.9648 50.4687 32.1394 48.1402L28.3693 49.4768ZM32.4774 56.801C34.2922 58.8552 36.418 60.4477 38.8476 61.5566L40.5084 57.9177C38.6087 57.0506 36.9333 55.8031 35.4751 54.1527L32.4774 56.801ZM38.864 61.564C41.3593 62.6759 44.0681 63.219 46.9635 63.219V59.219C44.5793 59.219 42.4314 58.7745 40.492 57.9103L38.864 61.564ZM46.9635 63.219C49.7478 63.219 52.4489 62.709 55.0547 61.6932L53.6018 57.9664C51.4562 58.8028 49.2475 59.219 46.9635 59.219V63.219ZM55.082 61.6823C57.8094 60.5727 60.3771 58.764 62.7949 56.3309L59.9576 53.5114C57.8349 55.6475 55.7039 57.1109 53.5746 57.9772L55.082 61.6823ZM59.7165 56.0371L67.0021 66.8731L70.3215 64.6413L63.036 53.8052L59.7165 56.0371ZM67.3386 64.2575C64.5327 66.7331 61.2478 68.6446 57.4621 69.9844L58.7967 73.7552C63.0354 72.2551 66.7724 70.0914 69.985 67.2569L67.3386 64.2575ZM57.4543 69.9872C53.6977 71.3345 49.9662 72 46.2508 72V76C50.4546 76 54.6421 75.2452 58.8046 73.7524L57.4543 69.9872ZM58.9416 63.8123V39.4543H54.9416V63.8123H58.9416ZM56.9416 41.4543H68.6618V37.4543H56.9416V41.4543ZM66.6618 39.4543V65.7572H70.6618V39.4543H66.6618ZM68.9892 63.7842L57.269 61.8392L56.6141 65.7853L68.3344 67.7302L68.9892 63.7842ZM107.84 72.8886V63.164H103.84V72.8886H107.84ZM107.715 62.467L106.923 60.3369L103.174 61.7307L103.966 63.8609L107.715 62.467ZM107.048 61.0338V43.622H103.048V61.0338H107.048ZM107.048 43.622C107.048 40.1805 106.129 37.2236 104.046 35.0231L101.141 37.7729C102.331 39.0302 103.048 40.8893 103.048 43.622H107.048ZM104.068 35.047C101.969 32.7555 98.8752 31.8048 95.2288 31.8048V35.8048C98.2345 35.8048 100.05 36.5827 101.119 37.749L104.068 35.047ZM95.2288 31.8048C92.6984 31.8048 90.2087 32.2878 87.7713 33.2379L89.224 36.9648C91.2212 36.1863 93.2193 35.8048 95.2288 35.8048V31.8048ZM87.8022 33.2262C85.4175 34.1106 83.3374 35.3526 81.5943 36.9691L84.3143 39.902C85.6336 38.6784 87.2488 37.6977 89.1931 36.9766L87.8022 33.2262ZM84.7854 37.6312L80.3507 27.536L76.6885 29.1448L81.1232 39.2399L84.7854 37.6312ZM79.7914 29.884C81.8933 28.1521 84.4587 26.7824 87.5245 25.7994L86.3031 21.9904C82.8227 23.1064 79.7921 24.7004 77.2478 26.7969L79.7914 29.884ZM87.5245 25.7994C90.604 24.812 93.7242 24.3204 96.8919 24.3204V20.3204C93.3023 20.3204 89.7704 20.8787 86.3032 21.9904L87.5245 25.7994ZM96.8919 24.3204C103.012 24.3204 107.487 25.998 110.605 29.108L113.43 26.2762C109.367 22.2237 103.759 20.3204 96.8919 20.3204V24.3204ZM110.605 29.1081C113.667 32.1628 115.402 37.1308 115.402 44.4556H119.402C119.402 36.5914 117.548 30.3839 113.43 26.2761L110.605 29.1081ZM115.402 44.4556V72.8886H119.402V44.4556H115.402ZM117.402 70.8886H105.84V74.8886H117.402V70.8886ZM92.8531 71.6295C89.7862 71.6295 87.2805 71.0325 85.2587 69.9291L83.3424 73.4402C86.072 74.9299 89.2681 75.6295 92.8531 75.6295V71.6295ZM85.2933 69.9484C83.2191 68.7623 81.6665 67.1995 80.5854 65.2503L77.0874 67.1903C78.5404 69.8102 80.6305 71.8899 83.3078 73.4208L85.2933 69.9484ZM80.5854 65.2503C79.4971 63.2879 78.9358 61.0644 78.9358 58.5332H74.9358C74.9358 61.6825 75.6416 64.5834 77.0874 67.1903L80.5854 65.2503ZM78.9358 58.5332C78.9358 55.8473 79.4842 53.5946 80.5124 51.7122L77.002 49.7947C75.6018 52.3579 74.9358 55.2916 74.9358 58.5332H78.9358ZM80.4947 51.7439C81.5231 49.9398 83.1561 48.4737 85.5302 47.3849L83.8628 43.749C80.8519 45.1298 78.5254 47.1215 77.0197 49.763L80.4947 51.7439ZM85.5643 47.3689C87.8925 46.2477 91.0756 45.622 95.2288 45.622V41.622C90.7242 41.622 86.8855 42.293 83.8287 43.765L85.5643 47.3689ZM95.2288 45.622H106.553V41.622H95.2288V45.622ZM104.553 43.622V52.0501H108.553V43.622H104.553ZM106.553 50.0501H96.5751V54.0501H106.553V50.0501ZM96.5751 50.0501C93.5475 50.0501 90.8377 50.6034 89.1407 52.3047L91.9726 55.1296C92.4928 54.6081 93.7957 54.0501 96.5751 54.0501V50.0501ZM89.1066 52.3397C87.6654 53.8568 86.9728 55.754 86.9728 57.8849H90.9728C90.9728 56.6815 91.3363 55.8003 92.0066 55.0946L89.1066 52.3397ZM86.9728 57.8849C86.9728 60.2205 87.7616 62.2659 89.4438 63.8057L92.1446 60.8551C91.3984 60.1721 90.9728 59.2538 90.9728 57.8849H86.9728ZM89.5183 63.8706C91.2439 65.3 93.4597 65.9049 95.9416 65.9049V61.9049C94.0945 61.9049 92.8786 61.46 92.07 60.7902L89.5183 63.8706ZM95.9416 65.9049C98.3838 65.9049 100.627 65.2384 102.609 63.8923L100.361 60.5833C99.0704 61.46 97.6172 61.9049 95.9416 61.9049V65.9049ZM102.65 63.8633C104.684 62.4057 106.097 60.3307 106.946 57.7749L103.151 56.5129C102.522 58.4028 101.56 59.7234 100.32 60.6123L102.65 63.8633ZM103.125 57.6921L105.026 64.3605L108.872 63.2641L106.972 56.5957L103.125 57.6921ZM105.023 63.2739C104.23 66.1093 102.833 68.1289 100.89 69.4918L103.188 72.7661C105.997 70.7947 107.873 67.9368 108.875 64.3506L105.023 63.2739ZM100.89 69.4918C98.9373 70.8623 96.3099 71.6295 92.8531 71.6295V75.6295C96.8934 75.6295 100.39 74.7297 103.188 72.7661L100.89 69.4918ZM183.144 24.3204C186.194 24.3204 188.804 25.0403 191.038 26.4275L193.148 23.0293C190.212 21.2061 186.854 20.3204 183.144 20.3204V24.3204ZM191.084 26.4551C193.307 27.7547 195.111 29.8137 196.447 32.7751L200.093 31.1298C198.476 27.5465 196.161 24.7895 193.102 23.0017L191.084 26.4551ZM196.465 32.814C197.826 35.6662 198.566 39.4797 198.566 44.363H202.566C202.566 39.12 201.779 34.6602 200.075 31.0909L196.465 32.814ZM198.566 44.363V72.8886H202.566V44.363H198.566ZM200.566 70.8886H188.213V74.8886H200.566V70.8886ZM190.213 72.8886V46.5857H186.213V72.8886H190.213ZM190.213 46.5857C190.213 42.4078 189.484 38.9246 187.679 36.5001L184.47 38.8891C185.516 40.2929 186.213 42.7371 186.213 46.5857H190.213ZM187.679 36.5001C185.84 34.0317 183.214 32.8235 180.056 32.8235V36.8235C182.073 36.8235 183.458 37.5292 184.47 38.8891L187.679 36.5001ZM180.056 32.8235C177.871 32.8235 175.859 33.433 174.086 34.6616L176.365 37.9491C177.443 37.2017 178.654 36.8235 180.056 36.8235V32.8235ZM174.136 34.6283C172.303 35.8191 170.964 37.5959 170.051 39.8011L173.747 41.3303C174.419 39.7073 175.297 38.644 176.315 37.9825L174.136 34.6283ZM170.051 39.8011C169.126 42.0383 168.712 44.7604 168.712 47.8823H172.712C172.712 45.0769 173.089 42.9214 173.747 41.3303L170.051 39.8011ZM168.712 47.8823V72.8886H172.712V47.8823H168.712ZM170.712 70.8886H158.358V74.8886H170.712V70.8886ZM160.358 72.8886V46.5857H156.358V72.8886H160.358ZM160.358 46.5857C160.358 42.4078 159.629 38.9246 157.824 36.5001L154.616 38.8891C155.661 40.2929 156.358 42.7371 156.358 46.5857H160.358ZM157.845 36.5295C156.057 34.0337 153.439 32.8235 150.28 32.8235V36.8235C152.297 36.8235 153.639 37.5272 154.594 38.8597L157.845 36.5295ZM150.28 32.8235C148.095 32.8235 146.083 33.433 144.31 34.6616L146.589 37.9491C147.667 37.2017 148.879 36.8235 150.28 36.8235V32.8235ZM144.36 34.6283C142.527 35.8191 141.188 37.5959 140.276 39.8011L143.972 41.3303C144.643 39.7073 145.521 38.644 146.539 37.9825L144.36 34.6283ZM140.276 39.8011C139.35 42.0383 138.936 44.7604 138.936 47.8823H142.936C142.936 45.0769 143.313 42.9215 143.972 41.3303L140.276 39.8011ZM138.936 47.8823V72.8886H142.936V47.8823H138.936ZM140.936 70.8886H128.582V74.8886H140.936V70.8886ZM130.582 72.8886V23.0613H126.582V72.8886H130.582ZM128.582 25.0613H140.381V21.0613H128.582V25.0613ZM138.381 23.0613V36.6758H142.381V23.0613H138.381ZM142.129 35.7029L139.912 31.7204L136.417 33.6663L138.634 37.6488L142.129 35.7029ZM139.998 33.4919C141.344 30.3997 143.192 28.172 145.501 26.6892L143.34 23.3233C140.264 25.2984 137.942 28.195 136.33 31.8948L139.998 33.4919ZM145.513 26.6816C147.913 25.1164 150.643 24.3204 153.765 24.3204V20.3204C149.918 20.3204 146.419 21.3151 143.328 23.3309L145.513 26.6816ZM153.765 24.3204C157.239 24.3204 160.194 25.351 162.723 27.3951L165.238 24.2845C161.962 21.6363 158.107 20.3204 153.765 20.3204V24.3204ZM162.758 27.4227C165.232 29.3333 166.995 32.3644 167.879 36.79L171.802 36.006C170.786 30.9232 168.645 26.9155 165.203 24.2569L162.758 27.4227ZM170.448 34.4926L166.093 33.1033L164.877 36.9142L169.233 38.3034L170.448 34.4926ZM167.363 35.6969C168.663 32.1491 170.705 29.3944 173.478 27.3598L171.112 24.1346C167.658 26.6691 165.158 30.0887 163.607 34.3206L167.363 35.6969ZM173.465 27.3693C176.278 25.3409 179.482 24.3204 183.144 24.3204V20.3204C178.679 20.3204 174.648 21.5842 171.125 24.1251L173.465 27.3693ZM233.093 71.6295C228.553 71.6295 224.642 70.5943 221.295 68.5814L219.233 72.0093C223.279 74.442 227.92 75.6295 233.093 75.6295V71.6295ZM221.306 68.5881C217.977 66.5568 215.404 63.8023 213.562 60.2901L210.019 62.148C212.193 66.2918 215.266 69.5884 219.222 72.0026L221.306 68.5881ZM213.568 60.3026C211.727 56.7305 210.781 52.6366 210.781 47.975H206.781C206.781 53.1921 207.844 57.9278 210.013 62.1355L213.568 60.3026ZM210.781 47.975C210.781 43.2385 211.706 39.1439 213.493 35.6394L209.93 33.8224C207.813 37.974 206.781 42.709 206.781 47.975H210.781ZM213.489 35.6482C215.346 32.0491 217.829 29.3023 220.934 27.3469L218.802 23.9623C215.045 26.3287 212.092 29.633 209.934 33.8136L213.489 35.6482ZM220.955 27.3334C224.045 25.3327 227.544 24.3204 231.509 24.3204V20.3204C226.819 20.3204 222.557 21.5309 218.781 23.9757L220.955 27.3334ZM231.509 24.3204C235.326 24.3204 238.7 25.2753 241.687 27.1606L243.822 23.7781C240.156 21.4646 236.034 20.3204 231.509 20.3204V24.3204ZM241.721 27.1821C244.745 29.0049 247.164 31.6697 248.965 35.2574L252.54 33.4635C250.436 29.2715 247.523 26.0089 243.787 23.7565L241.721 27.1821ZM248.971 35.2698C250.75 38.7544 251.682 43.027 251.682 48.1602H255.682C255.682 42.55 254.663 37.6226 252.534 33.4511L248.971 35.2698ZM251.682 48.1602C251.682 48.657 251.659 49.2558 251.608 49.9609L255.598 50.2494C255.654 49.4726 255.682 48.7748 255.682 48.1602H251.682ZM251.609 49.9546C251.558 50.6247 251.505 51.2653 251.452 51.8772L255.437 52.2229C255.491 51.5997 255.546 50.9438 255.598 50.2556L251.609 49.9546ZM253.445 50.0501H218.838V54.0501H253.445V50.0501ZM220.838 52.0501V43.622H216.838V52.0501H220.838ZM218.838 45.622H246.951V41.622H218.838V45.622ZM246.02 41.8522L241.268 44.3528L243.131 47.8925L247.883 45.3919L246.02 41.8522ZM244.2 46.1227C244.2 43.3021 243.713 40.7459 242.664 38.5114L239.043 40.212C239.792 41.8058 240.2 43.7568 240.2 46.1227H244.2ZM242.665 38.5133C241.63 36.3044 240.159 34.5233 238.236 33.249L236.027 36.5833C237.271 37.408 238.284 38.5907 239.042 40.2101L242.665 38.5133ZM238.28 33.279C236.329 31.9098 234.072 31.2491 231.588 31.2491V35.2491C233.329 35.2491 234.766 35.6997 235.983 36.5533L238.28 33.279ZM231.588 31.2491C229.106 31.2491 226.834 31.9097 224.842 33.2613L227.089 36.5709C228.372 35.6998 229.85 35.2491 231.588 35.2491V31.2491ZM224.861 33.249C222.921 34.5345 221.454 36.3602 220.423 38.6259L224.064 40.2827C224.831 38.597 225.843 37.3969 227.07 36.5833L224.861 33.249ZM220.433 38.6059C219.384 40.844 218.897 43.4317 218.897 46.3079H222.897C222.897 43.8739 223.31 41.893 224.055 40.3028L220.433 38.6059ZM218.897 46.3079V48.5307H222.897V46.3079H218.897ZM218.897 48.5307C218.897 51.4969 219.448 54.207 220.597 56.6158L224.207 54.8935C223.353 53.1036 222.897 50.9977 222.897 48.5307H218.897ZM220.627 56.676C221.843 59.0186 223.542 60.8772 225.726 62.1918L227.789 58.7644C226.279 57.8562 225.076 56.5659 224.177 54.8334L220.627 56.676ZM225.791 62.2289C228.033 63.4673 230.594 64.0526 233.41 64.0526V60.0526C231.157 60.0526 229.283 59.588 227.724 58.7273L225.791 62.2289ZM233.41 64.0526C235.915 64.0526 238.199 63.6096 240.208 62.6548L238.49 59.0423C237.121 59.6931 235.446 60.0526 233.41 60.0526V64.0526ZM240.186 62.665C242.207 61.7336 244.009 60.3517 245.596 58.5645L242.605 55.9086C241.341 57.3319 239.975 58.358 238.512 59.0321L240.186 62.665ZM242.53 58.4749L249.103 66.8103L252.244 64.3336L245.671 55.9982L242.53 58.4749ZM249.075 64.3692C247.318 66.7038 245.115 68.506 242.443 69.789L244.174 73.395C247.417 71.838 250.125 69.6266 252.271 66.7747L249.075 64.3692ZM242.473 69.7747C239.823 70.9925 236.712 71.6295 233.093 71.6295V75.6295C237.183 75.6295 240.882 74.9083 244.144 73.4092L242.473 69.7747ZM264.78 72.8886V8.05757H260.78V72.8886H264.78ZM262.78 10.0576H286.775V6.05757H262.78V10.0576ZM286.775 10.0576C291.479 10.0576 295.418 10.9642 298.663 12.6937L300.544 9.16367C296.606 7.065 291.993 6.05757 286.775 6.05757V10.0576ZM298.686 12.7059C301.926 14.378 304.408 16.7838 306.17 19.9571L309.667 18.0154C307.521 14.1498 304.459 11.184 300.521 9.15138L298.686 12.7059ZM306.17 19.9562C307.926 23.1225 308.849 26.9727 308.849 31.582H312.849C312.849 26.4355 311.815 21.8887 309.668 18.0162L306.17 19.9562ZM308.849 31.582C308.849 36.1245 307.928 39.9452 306.17 43.1151L309.668 45.0551C311.813 41.1862 312.849 36.6715 312.849 31.582H308.849ZM306.17 43.1142C304.405 46.293 301.916 48.7357 298.662 50.4706L300.545 54C304.47 51.9066 307.524 48.916 309.667 45.056L306.17 43.1142ZM298.687 50.4578C295.436 52.1343 291.488 53.0138 286.775 53.0138V57.0138C291.983 57.0138 296.588 56.0409 300.52 54.0128L298.687 50.4578ZM286.775 53.0138H269.907V57.0138H286.775V53.0138ZM271.436 56.3031L277.138 49.5422L274.08 46.9634L268.378 53.7244L271.436 56.3031ZM273.609 48.2528V72.8886H277.609V48.2528H273.609ZM275.609 70.8886H262.78V74.8886H275.609V70.8886ZM277.171 48.671L271.469 41.5395L268.345 44.0374L274.047 51.1688L277.171 48.671ZM269.907 44.7885H286.062V40.7885H269.907V44.7885ZM286.062 44.7885C290.327 44.7885 293.888 43.7234 296.353 41.2312L293.509 38.4183C292.066 39.8776 289.716 40.7885 286.062 40.7885V44.7885ZM296.354 41.2304C298.767 38.7877 299.861 35.4812 299.861 31.582H295.861C295.861 34.7215 294.999 36.9105 293.509 38.4192L296.354 41.2304ZM299.861 31.582C299.861 27.6322 298.774 24.29 296.354 21.841L293.509 24.6521C294.993 26.1546 295.861 28.3693 295.861 31.582H299.861ZM296.353 21.8401C293.888 19.348 290.327 18.2829 286.062 18.2829V22.2829C289.716 22.2829 292.066 23.1937 293.509 24.653L296.353 21.8401ZM286.062 18.2829H269.907V22.2829H286.062V18.2829ZM271.469 21.5318L277.171 14.4004L274.047 11.9025L268.345 19.0339L271.469 21.5318ZM273.609 13.1514V49.9199H277.609V13.1514H273.609ZM339.332 71.6295C335.132 71.6295 331.469 70.607 328.28 68.6022L326.151 71.9886C330.033 74.4293 334.447 75.6295 339.332 75.6295V71.6295ZM328.291 68.6092C325.11 66.5797 322.568 63.8151 320.662 60.2716L317.139 62.1664C319.351 66.279 322.353 69.5654 326.14 71.9815L328.291 68.6092ZM320.678 60.3017C318.835 56.7307 317.891 52.6374 317.891 47.975H313.891C313.891 53.1914 314.951 57.9276 317.123 62.1363L320.678 60.3017ZM317.891 47.975C317.891 43.2455 318.837 39.1587 320.672 35.6599L317.129 33.802C314.949 37.9592 313.891 42.7019 313.891 47.975H317.891ZM320.668 35.6666C322.574 32.0663 325.109 29.3145 328.27 27.3542L326.161 23.9549C322.354 26.3165 319.345 29.6158 317.133 33.7953L320.668 35.6666ZM328.28 27.3478C331.469 25.3429 335.132 24.3204 339.332 24.3204V20.3204C334.447 20.3204 330.033 21.5207 326.151 23.9614L328.28 27.3478ZM339.332 24.3204C343.47 24.3204 347.109 25.3404 350.305 27.3481L352.433 23.9611C348.552 21.5231 344.165 20.3204 339.332 20.3204V24.3204ZM350.326 27.3611C353.539 29.3251 356.065 32.045 357.913 35.5672L361.455 33.7094C359.287 29.5756 356.27 26.306 352.412 23.9481L350.326 27.3611ZM357.912 35.5664C359.744 39.0629 360.693 43.18 360.693 47.975H364.693C364.693 42.6437 363.634 37.8697 361.455 33.7102L357.912 35.5664ZM360.693 47.975C360.693 52.6366 359.748 56.7305 357.906 60.3026L361.461 62.1355C363.631 57.9278 364.693 53.1921 364.693 47.975H360.693ZM357.913 60.2901C356.063 63.8169 353.53 66.5741 350.304 68.6022L352.433 71.9886C356.278 69.5711 359.289 66.2772 361.455 62.148L357.913 60.2901ZM350.305 68.6019C347.109 70.6095 343.47 71.6295 339.332 71.6295V75.6295C344.165 75.6295 348.552 74.4268 352.433 71.9889L350.305 68.6019ZM339.332 63.7747C341.774 63.7747 344.016 63.1081 345.998 61.7624L343.752 58.4528C342.46 59.33 341.007 59.7747 339.332 59.7747V63.7747ZM345.999 61.7617C347.971 60.4217 349.486 58.5493 350.568 56.2296L346.943 54.5389C346.124 56.2943 345.05 57.5708 343.751 58.4536L345.999 61.7617ZM350.577 56.209C351.669 53.7975 352.181 51.0353 352.181 47.975H348.181C348.181 50.5953 347.742 52.7721 346.933 54.5595L350.577 56.209ZM352.181 47.975C352.181 44.8627 351.672 42.0878 350.568 39.7204L346.943 41.4111C347.739 43.1187 348.181 45.2835 348.181 47.975H352.181ZM350.568 39.7204C349.486 37.4007 347.971 35.5282 345.999 34.1882L343.751 37.4964C345.05 38.3792 346.124 39.6556 346.943 41.4111L350.568 39.7204ZM345.998 34.1875C344.016 32.8419 341.774 32.1752 339.332 32.1752V36.1752C341.007 36.1752 342.46 36.62 343.752 37.4971L345.998 34.1875ZM339.332 32.1752C336.89 32.1752 334.645 32.8415 332.664 34.1882L334.913 37.4964C336.201 36.6204 337.656 36.1752 339.332 36.1752V32.1752ZM332.665 34.1875C330.701 35.5206 329.166 37.3804 328.034 39.6835L331.624 41.448C332.495 39.6759 333.601 38.3868 334.912 37.4971L332.665 34.1875ZM328.016 39.7204C326.912 42.0878 326.403 44.8627 326.403 47.975H330.403C330.403 45.2835 330.845 43.1187 331.641 41.4111L328.016 39.7204ZM326.403 47.975C326.403 51.0353 326.915 53.7975 328.007 56.209L331.651 54.5595C330.842 52.7721 330.403 50.5953 330.403 47.975H326.403ZM328.034 56.2665C329.166 58.5695 330.701 60.4293 332.665 61.7624L334.912 58.4528C333.601 57.5632 332.495 56.274 331.624 54.502L328.034 56.2665ZM332.664 61.7617C334.645 63.1085 336.89 63.7747 339.332 63.7747V59.7747C337.656 59.7747 336.201 59.3296 334.913 58.4536L332.664 61.7617ZM372.95 72.8886V23.0613H368.95V72.8886H372.95ZM370.95 25.0613H383.303V21.0613H370.95V25.0613ZM381.303 23.0613V72.8886H385.303V23.0613H381.303ZM383.303 70.8886H370.95V74.8886H383.303V70.8886ZM377.127 14.1151C375.364 14.1151 374.067 13.5411 373.053 12.4429L370.114 15.1566C371.951 17.1457 374.348 18.1151 377.127 18.1151V14.1151ZM373.053 12.4429C371.999 11.3024 371.445 9.88704 371.445 8.05757H367.445C367.445 10.7973 368.316 13.2098 370.114 15.1566L373.053 12.4429ZM371.445 8.05757C371.445 6.22814 371.999 4.81268 373.053 3.67224L370.114 0.958543C368.316 2.90531 367.445 5.31794 367.445 8.05757H371.445ZM373.053 3.67224C374.067 2.57406 375.364 2 377.127 2V-2C374.348 -2 371.951 -1.03048 370.114 0.958543L373.053 3.67224ZM377.127 2C378.916 2 380.221 2.56221 381.229 3.60929L384.111 0.836271C382.268 -1.08036 379.879 -2 377.127 -2V2ZM381.258 3.63964C382.255 4.6325 382.808 5.9485 382.808 7.77972H386.808C386.808 5.04189 385.936 2.65325 384.082 0.805917L381.258 3.63964ZM382.808 7.77972C382.808 9.76221 382.235 11.2777 381.174 12.4718L384.165 15.1277C385.956 13.1113 386.808 10.6133 386.808 7.77972H382.808ZM381.175 12.4712C380.233 13.5315 378.957 14.1151 377.127 14.1151V18.1151C379.94 18.1151 382.363 17.1554 384.165 15.1283L381.175 12.4712ZM420.665 24.3204C423.711 24.3204 426.355 25.0399 428.654 26.4375L430.732 23.0193C427.749 21.2064 424.374 20.3204 420.665 20.3204V24.3204ZM428.698 26.4635C430.977 27.7701 432.829 29.8371 434.217 32.8007L437.839 31.1042C436.162 27.5231 433.794 24.7741 430.688 22.9933L428.698 26.4635ZM434.223 32.8129C435.583 35.6663 436.325 39.4807 436.325 44.363H440.325C440.325 39.1191 439.534 34.6602 437.834 31.092L434.223 32.8129ZM436.325 44.363V72.8886H440.325V44.363H436.325ZM438.325 70.8886H425.971V74.8886H438.325V70.8886ZM427.971 72.8886V46.5857H423.971V72.8886H427.971ZM427.971 46.5857C427.971 42.3854 427.181 38.8781 425.237 36.4458L422.112 38.9435C423.228 40.3395 423.971 42.7596 423.971 46.5857H427.971ZM425.257 36.4718C423.345 33.9969 420.607 32.8235 417.339 32.8235V36.8235C419.558 36.8235 421.046 37.564 422.092 38.9175L425.257 36.4718ZM417.339 32.8235C415.029 32.8235 412.891 33.413 410.975 34.6085L413.092 38.0023C414.343 37.2218 415.741 36.8235 417.339 36.8235V32.8235ZM410.999 34.5937C409.053 35.7698 407.597 37.568 406.569 39.8317L410.212 41.4849C410.978 39.7972 411.949 38.6933 413.068 38.0171L410.999 34.5937ZM406.552 39.8715C405.564 42.18 405.124 45.0048 405.124 48.2528H409.124C409.124 45.3266 409.526 43.0881 410.229 41.4452L406.552 39.8715ZM405.124 48.2528V72.8886H409.124V48.2528H405.124ZM407.124 70.8886H394.77V74.8886H407.124V70.8886ZM396.77 72.8886V23.0613H392.77V72.8886H396.77ZM394.77 25.0613H406.569V21.0613H394.77V25.0613ZM404.569 23.0613V36.8611H408.569V23.0613H404.569ZM408.335 35.9217L406.118 31.754L402.586 33.6327L404.804 37.8005L408.335 35.9217ZM406.17 33.5276C407.553 30.5144 409.496 28.265 411.988 26.6999L409.861 23.3126C406.651 25.3284 404.212 28.204 402.534 31.8591L406.17 33.5276ZM411.988 26.6999C414.494 25.126 417.367 24.3204 420.665 24.3204V20.3204C416.678 20.3204 413.057 21.3056 409.861 23.3126L411.988 26.6999ZM466.943 71.6295C462.343 71.6295 459.014 70.2855 456.676 67.8106L453.769 70.5574C457.03 74.0098 461.513 75.6295 466.943 75.6295V71.6295ZM456.691 67.8262C454.36 65.3045 453.025 61.3975 453.025 55.7547H449.025C449.025 61.9667 450.491 67.0124 453.754 70.5417L456.691 67.8262ZM453.025 55.7547V12.04H449.025V55.7547H453.025ZM451.025 14.04H463.379V10.04H451.025V14.04ZM461.379 12.04V55.5695H465.379V12.04H461.379ZM461.379 55.5695C461.379 57.9505 461.917 60.091 463.251 61.7369L466.359 59.2193C465.791 58.5188 465.379 57.3872 465.379 55.5695H461.379ZM463.285 61.7778C464.663 63.39 466.544 64.1452 468.685 64.1452V60.1452C467.556 60.1452 466.847 59.7889 466.325 59.1784L463.285 61.7778ZM468.685 64.1452C471.102 64.1452 473.25 63.3653 475.012 61.7794L472.336 58.8063C471.354 59.69 470.177 60.1452 468.685 60.1452V64.1452ZM471.773 60.9136L475.099 71.1013L478.901 69.8599L475.575 59.6722L471.773 60.9136ZM475.724 68.9404C474.685 69.801 473.396 70.4889 471.816 70.978L472.998 74.7992C475.009 74.1769 476.781 73.2593 478.276 72.0208L475.724 68.9404ZM471.861 70.9644C470.305 71.4056 468.668 71.6295 466.943 71.6295V75.6295C469.019 75.6295 471.024 75.3594 472.952 74.8128L471.861 70.9644ZM446.453 35.2866V24.1727H442.453V35.2866H446.453ZM444.453 26.1727H473.991V22.1727H444.453V26.1727ZM471.991 24.1727V35.2866H475.991V24.1727H471.991ZM473.991 33.2866H444.453V37.2866H473.991V33.2866Z" fill="#96ADC5" mask="url(#path-1-outside-1_35_147)"/>
<path d="M132.054 106.719C132.054 107.083 131.921 107.391 131.655 107.643C131.389 107.881 131.081 108 130.731 108C130.339 108 130.024 107.881 129.786 107.643C129.548 107.391 129.429 107.083 129.429 106.719V94.581C129.429 94.217 129.555 93.916 129.807 93.678C130.059 93.426 130.381 93.3 130.773 93.3C131.109 93.3 131.403 93.426 131.655 93.678C131.921 93.916 132.054 94.217 132.054 94.581V106.719ZM140.904 96.555C142.024 96.555 142.85 96.828 143.382 97.374C143.914 97.906 144.264 98.599 144.432 99.453L144.075 99.264L144.243 98.928C144.411 98.606 144.67 98.263 145.02 97.899C145.37 97.521 145.79 97.206 146.28 96.954C146.784 96.688 147.344 96.555 147.96 96.555C148.968 96.555 149.731 96.772 150.249 97.206C150.781 97.64 151.145 98.221 151.341 98.949C151.537 99.663 151.635 100.461 151.635 101.343V106.719C151.635 107.083 151.516 107.391 151.278 107.643C151.04 107.881 150.739 108 150.375 108C150.011 108 149.71 107.881 149.472 107.643C149.234 107.391 149.115 107.083 149.115 106.719V101.343C149.115 100.881 149.059 100.468 148.947 100.104C148.835 99.726 148.632 99.425 148.338 99.201C148.044 98.977 147.624 98.865 147.078 98.865C146.546 98.865 146.091 98.977 145.713 99.201C145.335 99.425 145.048 99.726 144.852 100.104C144.67 100.468 144.579 100.881 144.579 101.343V106.719C144.579 107.083 144.46 107.391 144.222 107.643C143.984 107.881 143.683 108 143.319 108C142.955 108 142.654 107.881 142.416 107.643C142.178 107.391 142.059 107.083 142.059 106.719V101.343C142.059 100.881 142.003 100.468 141.891 100.104C141.779 99.726 141.576 99.425 141.282 99.201C140.988 98.977 140.568 98.865 140.022 98.865C139.49 98.865 139.035 98.977 138.657 99.201C138.279 99.425 137.992 99.726 137.796 100.104C137.614 100.468 137.523 100.881 137.523 101.343V106.719C137.523 107.083 137.404 107.391 137.166 107.643C136.928 107.881 136.627 108 136.263 108C135.899 108 135.598 107.881 135.36 107.643C135.122 107.391 135.003 107.083 135.003 106.719V98.046C135.003 97.682 135.122 97.381 135.36 97.143C135.598 96.891 135.899 96.765 136.263 96.765C136.627 96.765 136.928 96.891 137.166 97.143C137.404 97.381 137.523 97.682 137.523 98.046V98.949L137.208 98.886C137.334 98.648 137.509 98.396 137.733 98.13C137.957 97.85 138.23 97.591 138.552 97.353C138.874 97.115 139.231 96.926 139.623 96.786C140.015 96.632 140.442 96.555 140.904 96.555ZM160.179 96.555C161.159 96.555 162.034 96.807 162.804 97.311C163.588 97.801 164.204 98.48 164.652 99.348C165.114 100.216 165.345 101.224 165.345 102.372C165.345 103.52 165.114 104.535 164.652 105.417C164.204 106.285 163.595 106.971 162.825 107.475C162.069 107.965 161.215 108.21 160.263 108.21C159.703 108.21 159.178 108.119 158.688 107.937C158.198 107.755 157.764 107.524 157.386 107.244C157.022 106.964 156.735 106.684 156.525 106.404C156.329 106.11 156.231 105.865 156.231 105.669L156.882 105.396V110.919C156.882 111.283 156.763 111.584 156.525 111.822C156.287 112.074 155.986 112.2 155.622 112.2C155.258 112.2 154.957 112.081 154.719 111.843C154.481 111.605 154.362 111.297 154.362 110.919V98.046C154.362 97.682 154.481 97.381 154.719 97.143C154.957 96.891 155.258 96.765 155.622 96.765C155.986 96.765 156.287 96.891 156.525 97.143C156.763 97.381 156.882 97.682 156.882 98.046V99.075L156.525 98.886C156.525 98.704 156.623 98.487 156.819 98.235C157.015 97.969 157.281 97.71 157.617 97.458C157.953 97.192 158.338 96.975 158.772 96.807C159.22 96.639 159.689 96.555 160.179 96.555ZM159.864 98.865C159.248 98.865 158.709 99.019 158.247 99.327C157.785 99.635 157.421 100.055 157.155 100.587C156.903 101.105 156.777 101.7 156.777 102.372C156.777 103.03 156.903 103.632 157.155 104.178C157.421 104.71 157.785 105.13 158.247 105.438C158.709 105.746 159.248 105.9 159.864 105.9C160.48 105.9 161.012 105.746 161.46 105.438C161.922 105.13 162.279 104.71 162.531 104.178C162.797 103.632 162.93 103.03 162.93 102.372C162.93 101.7 162.797 101.105 162.531 100.587C162.279 100.055 161.922 99.635 161.46 99.327C161.012 99.019 160.48 98.865 159.864 98.865ZM178.448 102.393C178.448 103.541 178.189 104.556 177.671 105.438C177.167 106.306 176.481 106.985 175.613 107.475C174.759 107.965 173.8 108.21 172.736 108.21C171.672 108.21 170.706 107.965 169.838 107.475C168.984 106.985 168.298 106.306 167.78 105.438C167.276 104.556 167.024 103.541 167.024 102.393C167.024 101.245 167.276 100.237 167.78 99.369C168.298 98.487 168.984 97.801 169.838 97.311C170.706 96.807 171.672 96.555 172.736 96.555C173.8 96.555 174.759 96.807 175.613 97.311C176.481 97.801 177.167 98.487 177.671 99.369C178.189 100.237 178.448 101.245 178.448 102.393ZM175.928 102.393C175.928 101.679 175.781 101.063 175.487 100.545C175.207 100.013 174.822 99.6 174.332 99.306C173.856 99.012 173.324 98.865 172.736 98.865C172.148 98.865 171.609 99.012 171.119 99.306C170.643 99.6 170.258 100.013 169.964 100.545C169.684 101.063 169.544 101.679 169.544 102.393C169.544 103.093 169.684 103.709 169.964 104.241C170.258 104.759 170.643 105.165 171.119 105.459C171.609 105.753 172.148 105.9 172.736 105.9C173.324 105.9 173.856 105.753 174.332 105.459C174.822 105.165 175.207 104.759 175.487 104.241C175.781 103.709 175.928 103.093 175.928 102.393ZM181.913 108C181.549 108 181.248 107.881 181.01 107.643C180.772 107.391 180.653 107.083 180.653 106.719V98.046C180.653 97.682 180.772 97.381 181.01 97.143C181.248 96.891 181.549 96.765 181.913 96.765C182.277 96.765 182.578 96.891 182.816 97.143C183.054 97.381 183.173 97.682 183.173 98.046V100.02L183.026 98.613C183.18 98.277 183.376 97.983 183.614 97.731C183.866 97.465 184.146 97.248 184.454 97.08C184.762 96.898 185.091 96.765 185.441 96.681C185.791 96.597 186.141 96.555 186.491 96.555C186.911 96.555 187.261 96.674 187.541 96.912C187.835 97.15 187.982 97.43 187.982 97.752C187.982 98.214 187.863 98.55 187.625 98.76C187.387 98.956 187.128 99.054 186.848 99.054C186.582 99.054 186.337 99.005 186.113 98.907C185.903 98.809 185.658 98.76 185.378 98.76C185.126 98.76 184.867 98.823 184.601 98.949C184.349 99.061 184.111 99.243 183.887 99.495C183.677 99.747 183.502 100.062 183.362 100.44C183.236 100.804 183.173 101.238 183.173 101.742V106.719C183.173 107.083 183.054 107.391 182.816 107.643C182.578 107.881 182.277 108 181.913 108ZM189.885 96.975H194.862C195.198 96.975 195.478 97.087 195.702 97.311C195.926 97.535 196.038 97.815 196.038 98.151C196.038 98.473 195.926 98.746 195.702 98.97C195.478 99.18 195.198 99.285 194.862 99.285H189.885C189.549 99.285 189.269 99.173 189.045 98.949C188.821 98.725 188.709 98.445 188.709 98.109C188.709 97.787 188.821 97.521 189.045 97.311C189.269 97.087 189.549 96.975 189.885 96.975ZM192.132 94.35C192.496 94.35 192.79 94.476 193.014 94.728C193.252 94.966 193.371 95.267 193.371 95.631V104.976C193.371 105.172 193.406 105.333 193.476 105.459C193.56 105.585 193.665 105.676 193.791 105.732C193.931 105.788 194.078 105.816 194.232 105.816C194.4 105.816 194.554 105.788 194.694 105.732C194.834 105.662 194.995 105.627 195.177 105.627C195.373 105.627 195.548 105.718 195.702 105.9C195.87 106.082 195.954 106.334 195.954 106.656C195.954 107.048 195.737 107.37 195.303 107.622C194.883 107.874 194.428 108 193.938 108C193.644 108 193.315 107.979 192.951 107.937C192.601 107.881 192.265 107.762 191.943 107.58C191.635 107.384 191.376 107.09 191.166 106.698C190.956 106.306 190.851 105.767 190.851 105.081V95.631C190.851 95.267 190.97 94.966 191.208 94.728C191.46 94.476 191.768 94.35 192.132 94.35ZM203.541 108.21C202.351 108.21 201.315 107.965 200.433 107.475C199.565 106.971 198.893 106.292 198.417 105.438C197.955 104.584 197.724 103.618 197.724 102.54C197.724 101.28 197.976 100.209 198.48 99.327C198.998 98.431 199.67 97.745 200.496 97.269C201.322 96.793 202.197 96.555 203.121 96.555C203.835 96.555 204.507 96.702 205.137 96.996C205.781 97.29 206.348 97.696 206.838 98.214C207.328 98.718 207.713 99.306 207.993 99.978C208.287 100.65 208.434 101.364 208.434 102.12C208.42 102.456 208.287 102.729 208.035 102.939C207.783 103.149 207.489 103.254 207.153 103.254H199.131L198.501 101.154H206.208L205.746 101.574V101.007C205.718 100.601 205.571 100.237 205.305 99.915C205.053 99.593 204.731 99.341 204.339 99.159C203.961 98.963 203.555 98.865 203.121 98.865C202.701 98.865 202.309 98.921 201.945 99.033C201.581 99.145 201.266 99.334 201 99.6C200.734 99.866 200.524 100.223 200.37 100.671C200.216 101.119 200.139 101.686 200.139 102.372C200.139 103.128 200.293 103.772 200.601 104.304C200.923 104.822 201.329 105.221 201.819 105.501C202.323 105.767 202.855 105.9 203.415 105.9C203.933 105.9 204.346 105.858 204.654 105.774C204.962 105.69 205.207 105.592 205.389 105.48C205.585 105.354 205.76 105.249 205.914 105.165C206.166 105.039 206.404 104.976 206.628 104.976C206.936 104.976 207.188 105.081 207.384 105.291C207.594 105.501 207.699 105.746 207.699 106.026C207.699 106.404 207.503 106.747 207.111 107.055C206.747 107.363 206.236 107.636 205.578 107.874C204.92 108.098 204.241 108.21 203.541 108.21ZM211.896 108C211.532 108 211.231 107.881 210.993 107.643C210.755 107.391 210.636 107.083 210.636 106.719V98.046C210.636 97.682 210.755 97.381 210.993 97.143C211.231 96.891 211.532 96.765 211.896 96.765C212.26 96.765 212.561 96.891 212.799 97.143C213.037 97.381 213.156 97.682 213.156 98.046V100.02L213.009 98.613C213.163 98.277 213.359 97.983 213.597 97.731C213.849 97.465 214.129 97.248 214.437 97.08C214.745 96.898 215.074 96.765 215.424 96.681C215.774 96.597 216.124 96.555 216.474 96.555C216.894 96.555 217.244 96.674 217.524 96.912C217.818 97.15 217.965 97.43 217.965 97.752C217.965 98.214 217.846 98.55 217.608 98.76C217.37 98.956 217.111 99.054 216.831 99.054C216.565 99.054 216.32 99.005 216.096 98.907C215.886 98.809 215.641 98.76 215.361 98.76C215.109 98.76 214.85 98.823 214.584 98.949C214.332 99.061 214.094 99.243 213.87 99.495C213.66 99.747 213.485 100.062 213.345 100.44C213.219 100.804 213.156 101.238 213.156 101.742V106.719C213.156 107.083 213.037 107.391 212.799 107.643C212.561 107.881 212.26 108 211.896 108ZM236.526 102.393C236.526 103.541 236.267 104.556 235.749 105.438C235.245 106.306 234.559 106.985 233.691 107.475C232.837 107.965 231.878 108.21 230.814 108.21C229.75 108.21 228.784 107.965 227.916 107.475C227.062 106.985 226.376 106.306 225.858 105.438C225.354 104.556 225.102 103.541 225.102 102.393C225.102 101.245 225.354 100.237 225.858 99.369C226.376 98.487 227.062 97.801 227.916 97.311C228.784 96.807 229.75 96.555 230.814 96.555C231.878 96.555 232.837 96.807 233.691 97.311C234.559 97.801 235.245 98.487 235.749 99.369C236.267 100.237 236.526 101.245 236.526 102.393ZM234.006 102.393C234.006 101.679 233.859 101.063 233.565 100.545C233.285 100.013 232.9 99.6 232.41 99.306C231.934 99.012 231.402 98.865 230.814 98.865C230.226 98.865 229.687 99.012 229.197 99.306C228.721 99.6 228.336 100.013 228.042 100.545C227.762 101.063 227.622 101.679 227.622 102.393C227.622 103.093 227.762 103.709 228.042 104.241C228.336 104.759 228.721 105.165 229.197 105.459C229.687 105.753 230.226 105.9 230.814 105.9C231.402 105.9 231.934 105.753 232.41 105.459C232.9 105.165 233.285 104.759 233.565 104.241C233.859 103.709 234.006 103.093 234.006 102.393ZM244.506 92.46C244.814 92.46 245.115 92.502 245.409 92.586C245.703 92.67 245.948 92.81 246.144 93.006C246.34 93.188 246.438 93.433 246.438 93.741C246.438 94.091 246.333 94.371 246.123 94.581C245.927 94.777 245.696 94.875 245.43 94.875C245.304 94.875 245.115 94.847 244.863 94.791C244.611 94.721 244.366 94.686 244.128 94.686C243.778 94.686 243.505 94.763 243.309 94.917C243.127 95.071 243.001 95.253 242.931 95.463C242.861 95.659 242.826 95.834 242.826 95.988V106.719C242.826 107.083 242.707 107.391 242.469 107.643C242.231 107.881 241.93 108 241.566 108C241.202 108 240.901 107.881 240.663 107.643C240.425 107.391 240.306 107.083 240.306 106.719V96.009C240.306 95.015 240.656 94.175 241.356 93.489C242.056 92.803 243.106 92.46 244.506 92.46ZM244.737 96.975C245.073 96.975 245.353 97.087 245.577 97.311C245.801 97.521 245.913 97.794 245.913 98.13C245.913 98.466 245.801 98.746 245.577 98.97C245.353 99.18 245.073 99.285 244.737 99.285H239.172C238.836 99.285 238.556 99.18 238.332 98.97C238.108 98.746 237.996 98.466 237.996 98.13C237.996 97.794 238.108 97.521 238.332 97.311C238.556 97.087 238.836 96.975 239.172 96.975H244.737ZM264.284 94.014C264.648 94.196 264.858 94.483 264.914 94.875C264.984 95.267 264.886 95.624 264.62 95.946C264.438 96.198 264.2 96.338 263.906 96.366C263.626 96.394 263.339 96.338 263.045 96.198C262.709 96.044 262.352 95.925 261.974 95.841C261.61 95.757 261.225 95.715 260.819 95.715C260.063 95.715 259.384 95.834 258.782 96.072C258.194 96.31 257.69 96.653 257.27 97.101C256.85 97.535 256.528 98.053 256.304 98.655C256.094 99.257 255.989 99.922 255.989 100.65C255.989 101.504 256.108 102.246 256.346 102.876C256.598 103.506 256.941 104.031 257.375 104.451C257.809 104.871 258.32 105.186 258.908 105.396C259.496 105.592 260.133 105.69 260.819 105.69C261.197 105.69 261.575 105.655 261.953 105.585C262.331 105.515 262.695 105.389 263.045 105.207C263.339 105.067 263.626 105.018 263.906 105.06C264.2 105.102 264.445 105.249 264.641 105.501C264.921 105.851 265.019 106.215 264.935 106.593C264.865 106.957 264.655 107.223 264.305 107.391C263.941 107.573 263.563 107.727 263.171 107.853C262.793 107.965 262.408 108.049 262.016 108.105C261.624 108.175 261.225 108.21 260.819 108.21C259.811 108.21 258.852 108.049 257.942 107.727C257.046 107.405 256.241 106.929 255.527 106.299C254.827 105.669 254.274 104.885 253.868 103.947C253.462 102.995 253.259 101.896 253.259 100.65C253.259 99.572 253.441 98.578 253.805 97.668C254.183 96.758 254.708 95.974 255.38 95.316C256.066 94.644 256.871 94.126 257.795 93.762C258.719 93.384 259.727 93.195 260.819 93.195C261.435 93.195 262.037 93.265 262.625 93.405C263.213 93.545 263.766 93.748 264.284 94.014ZM277.849 102.393C277.849 103.541 277.59 104.556 277.072 105.438C276.568 106.306 275.882 106.985 275.014 107.475C274.16 107.965 273.201 108.21 272.137 108.21C271.073 108.21 270.107 107.965 269.239 107.475C268.385 106.985 267.699 106.306 267.181 105.438C266.677 104.556 266.425 103.541 266.425 102.393C266.425 101.245 266.677 100.237 267.181 99.369C267.699 98.487 268.385 97.801 269.239 97.311C270.107 96.807 271.073 96.555 272.137 96.555C273.201 96.555 274.16 96.807 275.014 97.311C275.882 97.801 276.568 98.487 277.072 99.369C277.59 100.237 277.849 101.245 277.849 102.393ZM275.329 102.393C275.329 101.679 275.182 101.063 274.888 100.545C274.608 100.013 274.223 99.6 273.733 99.306C273.257 99.012 272.725 98.865 272.137 98.865C271.549 98.865 271.01 99.012 270.52 99.306C270.044 99.6 269.659 100.013 269.365 100.545C269.085 101.063 268.945 101.679 268.945 102.393C268.945 103.093 269.085 103.709 269.365 104.241C269.659 104.759 270.044 105.165 270.52 105.459C271.01 105.753 271.549 105.9 272.137 105.9C272.725 105.9 273.257 105.753 273.733 105.459C274.223 105.165 274.608 104.759 274.888 104.241C275.182 103.709 275.329 103.093 275.329 102.393ZM285.955 96.555C287.075 96.555 287.901 96.828 288.433 97.374C288.965 97.906 289.315 98.599 289.483 99.453L289.126 99.264L289.294 98.928C289.462 98.606 289.721 98.263 290.071 97.899C290.421 97.521 290.841 97.206 291.331 96.954C291.835 96.688 292.395 96.555 293.011 96.555C294.019 96.555 294.782 96.772 295.3 97.206C295.832 97.64 296.196 98.221 296.392 98.949C296.588 99.663 296.686 100.461 296.686 101.343V106.719C296.686 107.083 296.567 107.391 296.329 107.643C296.091 107.881 295.79 108 295.426 108C295.062 108 294.761 107.881 294.523 107.643C294.285 107.391 294.166 107.083 294.166 106.719V101.343C294.166 100.881 294.11 100.468 293.998 100.104C293.886 99.726 293.683 99.425 293.389 99.201C293.095 98.977 292.675 98.865 292.129 98.865C291.597 98.865 291.142 98.977 290.764 99.201C290.386 99.425 290.099 99.726 289.903 100.104C289.721 100.468 289.63 100.881 289.63 101.343V106.719C289.63 107.083 289.511 107.391 289.273 107.643C289.035 107.881 288.734 108 288.37 108C288.006 108 287.705 107.881 287.467 107.643C287.229 107.391 287.11 107.083 287.11 106.719V101.343C287.11 100.881 287.054 100.468 286.942 100.104C286.83 99.726 286.627 99.425 286.333 99.201C286.039 98.977 285.619 98.865 285.073 98.865C284.541 98.865 284.086 98.977 283.708 99.201C283.33 99.425 283.043 99.726 282.847 100.104C282.665 100.468 282.574 100.881 282.574 101.343V106.719C282.574 107.083 282.455 107.391 282.217 107.643C281.979 107.881 281.678 108 281.314 108C280.95 108 280.649 107.881 280.411 107.643C280.173 107.391 280.054 107.083 280.054 106.719V98.046C280.054 97.682 280.173 97.381 280.411 97.143C280.649 96.891 280.95 96.765 281.314 96.765C281.678 96.765 281.979 96.891 282.217 97.143C282.455 97.381 282.574 97.682 282.574 98.046V98.949L282.259 98.886C282.385 98.648 282.56 98.396 282.784 98.13C283.008 97.85 283.281 97.591 283.603 97.353C283.925 97.115 284.282 96.926 284.674 96.786C285.066 96.632 285.493 96.555 285.955 96.555ZM305.231 96.555C306.211 96.555 307.086 96.807 307.856 97.311C308.64 97.801 309.256 98.48 309.704 99.348C310.166 100.216 310.397 101.224 310.397 102.372C310.397 103.52 310.166 104.535 309.704 105.417C309.256 106.285 308.647 106.971 307.877 107.475C307.121 107.965 306.267 108.21 305.315 108.21C304.755 108.21 304.23 108.119 303.74 107.937C303.25 107.755 302.816 107.524 302.438 107.244C302.074 106.964 301.787 106.684 301.577 106.404C301.381 106.11 301.283 105.865 301.283 105.669L301.934 105.396V110.919C301.934 111.283 301.815 111.584 301.577 111.822C301.339 112.074 301.038 112.2 300.674 112.2C300.31 112.2 300.009 112.081 299.771 111.843C299.533 111.605 299.414 111.297 299.414 110.919V98.046C299.414 97.682 299.533 97.381 299.771 97.143C300.009 96.891 300.31 96.765 300.674 96.765C301.038 96.765 301.339 96.891 301.577 97.143C301.815 97.381 301.934 97.682 301.934 98.046V99.075L301.577 98.886C301.577 98.704 301.675 98.487 301.871 98.235C302.067 97.969 302.333 97.71 302.669 97.458C303.005 97.192 303.39 96.975 303.824 96.807C304.272 96.639 304.741 96.555 305.231 96.555ZM304.916 98.865C304.3 98.865 303.761 99.019 303.299 99.327C302.837 99.635 302.473 100.055 302.207 100.587C301.955 101.105 301.829 101.7 301.829 102.372C301.829 103.03 301.955 103.632 302.207 104.178C302.473 104.71 302.837 105.13 303.299 105.438C303.761 105.746 304.3 105.9 304.916 105.9C305.532 105.9 306.064 105.746 306.512 105.438C306.974 105.13 307.331 104.71 307.583 104.178C307.849 103.632 307.982 103.03 307.982 102.372C307.982 101.7 307.849 101.105 307.583 100.587C307.331 100.055 306.974 99.635 306.512 99.327C306.064 99.019 305.532 98.865 304.916 98.865ZM320.937 96.765C321.301 96.765 321.602 96.891 321.84 97.143C322.078 97.381 322.197 97.682 322.197 98.046V103.38C322.197 104.864 321.784 106.04 320.958 106.908C320.132 107.776 318.942 108.21 317.388 108.21C315.834 108.21 314.644 107.776 313.818 106.908C313.006 106.04 312.6 104.864 312.6 103.38V98.046C312.6 97.682 312.719 97.381 312.957 97.143C313.195 96.891 313.496 96.765 313.86 96.765C314.224 96.765 314.525 96.891 314.763 97.143C315.001 97.381 315.12 97.682 315.12 98.046V103.38C315.12 104.234 315.309 104.871 315.687 105.291C316.065 105.697 316.632 105.9 317.388 105.9C318.158 105.9 318.732 105.697 319.11 105.291C319.488 104.871 319.677 104.234 319.677 103.38V98.046C319.677 97.682 319.796 97.381 320.034 97.143C320.272 96.891 320.573 96.765 320.937 96.765ZM325.052 96.975H330.029C330.365 96.975 330.645 97.087 330.869 97.311C331.093 97.535 331.205 97.815 331.205 98.151C331.205 98.473 331.093 98.746 330.869 98.97C330.645 99.18 330.365 99.285 330.029 99.285H325.052C324.716 99.285 324.436 99.173 324.212 98.949C323.988 98.725 323.876 98.445 323.876 98.109C323.876 97.787 323.988 97.521 324.212 97.311C324.436 97.087 324.716 96.975 325.052 96.975ZM327.299 94.35C327.663 94.35 327.957 94.476 328.181 94.728C328.419 94.966 328.538 95.267 328.538 95.631V104.976C328.538 105.172 328.573 105.333 328.643 105.459C328.727 105.585 328.832 105.676 328.958 105.732C329.098 105.788 329.245 105.816 329.399 105.816C329.567 105.816 329.721 105.788 329.861 105.732C330.001 105.662 330.162 105.627 330.344 105.627C330.54 105.627 330.715 105.718 330.869 105.9C331.037 106.082 331.121 106.334 331.121 106.656C331.121 107.048 330.904 107.37 330.47 107.622C330.05 107.874 329.595 108 329.105 108C328.811 108 328.482 107.979 328.118 107.937C327.768 107.881 327.432 107.762 327.11 107.58C326.802 107.384 326.543 107.09 326.333 106.698C326.123 106.306 326.018 105.767 326.018 105.081V95.631C326.018 95.267 326.137 94.966 326.375 94.728C326.627 94.476 326.935 94.35 327.299 94.35ZM338.708 108.21C337.518 108.21 336.482 107.965 335.6 107.475C334.732 106.971 334.06 106.292 333.584 105.438C333.122 104.584 332.891 103.618 332.891 102.54C332.891 101.28 333.143 100.209 333.647 99.327C334.165 98.431 334.837 97.745 335.663 97.269C336.489 96.793 337.364 96.555 338.288 96.555C339.002 96.555 339.674 96.702 340.304 96.996C340.948 97.29 341.515 97.696 342.005 98.214C342.495 98.718 342.88 99.306 343.16 99.978C343.454 100.65 343.601 101.364 343.601 102.12C343.587 102.456 343.454 102.729 343.202 102.939C342.95 103.149 342.656 103.254 342.32 103.254H334.298L333.668 101.154H341.375L340.913 101.574V101.007C340.885 100.601 340.738 100.237 340.472 99.915C340.22 99.593 339.898 99.341 339.506 99.159C339.128 98.963 338.722 98.865 338.288 98.865C337.868 98.865 337.476 98.921 337.112 99.033C336.748 99.145 336.433 99.334 336.167 99.6C335.901 99.866 335.691 100.223 335.537 100.671C335.383 101.119 335.306 101.686 335.306 102.372C335.306 103.128 335.46 103.772 335.768 104.304C336.09 104.822 336.496 105.221 336.986 105.501C337.49 105.767 338.022 105.9 338.582 105.9C339.1 105.9 339.513 105.858 339.821 105.774C340.129 105.69 340.374 105.592 340.556 105.48C340.752 105.354 340.927 105.249 341.081 105.165C341.333 105.039 341.571 104.976 341.795 104.976C342.103 104.976 342.355 105.081 342.551 105.291C342.761 105.501 342.866 105.746 342.866 106.026C342.866 106.404 342.67 106.747 342.278 107.055C341.914 107.363 341.403 107.636 340.745 107.874C340.087 108.098 339.408 108.21 338.708 108.21ZM347.062 108C346.699 108 346.398 107.881 346.16 107.643C345.922 107.391 345.803 107.083 345.803 106.719V98.046C345.803 97.682 345.922 97.381 346.16 97.143C346.398 96.891 346.699 96.765 347.062 96.765C347.427 96.765 347.728 96.891 347.966 97.143C348.204 97.381 348.323 97.682 348.323 98.046V100.02L348.176 98.613C348.33 98.277 348.526 97.983 348.764 97.731C349.016 97.465 349.296 97.248 349.604 97.08C349.912 96.898 350.241 96.765 350.591 96.681C350.941 96.597 351.291 96.555 351.641 96.555C352.061 96.555 352.411 96.674 352.691 96.912C352.985 97.15 353.132 97.43 353.132 97.752C353.132 98.214 353.013 98.55 352.775 98.76C352.537 98.956 352.278 99.054 351.998 99.054C351.732 99.054 351.487 99.005 351.263 98.907C351.053 98.809 350.808 98.76 350.528 98.76C350.276 98.76 350.017 98.823 349.751 98.949C349.499 99.061 349.261 99.243 349.037 99.495C348.827 99.747 348.652 100.062 348.512 100.44C348.386 100.804 348.323 101.238 348.323 101.742V106.719C348.323 107.083 348.204 107.391 347.966 107.643C347.728 107.881 347.427 108 347.062 108ZM366.401 96.597L361.865 107.265C361.767 107.531 361.613 107.741 361.403 107.895C361.207 108.035 360.99 108.105 360.752 108.105C360.374 108.105 360.094 108 359.912 107.79C359.73 107.58 359.639 107.321 359.639 107.013C359.639 106.887 359.66 106.754 359.702 106.614L364.931 94.056C365.043 93.776 365.211 93.559 365.435 93.405C365.673 93.251 365.925 93.188 366.191 93.216C366.443 93.216 366.674 93.293 366.884 93.447C367.108 93.587 367.269 93.79 367.367 94.056L372.533 106.362C372.603 106.544 372.638 106.712 372.638 106.866C372.638 107.244 372.512 107.545 372.26 107.769C372.022 107.993 371.756 108.105 371.462 108.105C371.21 108.105 370.979 108.028 370.769 107.874C370.573 107.72 370.419 107.51 370.307 107.244L365.792 96.723L366.401 96.597ZM362.516 104.703L363.671 102.288H369.341L369.74 104.703H362.516ZM379.204 96.555C380.002 96.555 380.695 96.639 381.283 96.807C381.885 96.975 382.347 97.213 382.669 97.521C383.005 97.815 383.173 98.172 383.173 98.592C383.173 98.872 383.089 99.138 382.921 99.39C382.753 99.628 382.508 99.747 382.186 99.747C381.962 99.747 381.773 99.719 381.619 99.663C381.479 99.593 381.353 99.509 381.241 99.411C381.129 99.313 380.996 99.222 380.842 99.138C380.702 99.054 380.485 98.991 380.191 98.949C379.911 98.893 379.701 98.865 379.561 98.865C378.847 98.865 378.238 99.019 377.734 99.327C377.244 99.635 376.866 100.055 376.6 100.587C376.334 101.105 376.201 101.707 376.201 102.393C376.201 103.065 376.334 103.667 376.6 104.199C376.88 104.717 377.258 105.13 377.734 105.438C378.224 105.746 378.784 105.9 379.414 105.9C379.764 105.9 380.065 105.879 380.317 105.837C380.569 105.795 380.779 105.732 380.947 105.648C381.143 105.536 381.318 105.417 381.472 105.291C381.626 105.165 381.857 105.102 382.165 105.102C382.529 105.102 382.809 105.221 383.005 105.459C383.201 105.683 383.299 105.963 383.299 106.299C383.299 106.649 383.103 106.971 382.711 107.265C382.319 107.545 381.801 107.776 381.157 107.958C380.527 108.126 379.841 108.21 379.099 108.21C377.993 108.21 377.034 107.958 376.222 107.454C375.41 106.936 374.78 106.236 374.332 105.354C373.898 104.472 373.681 103.485 373.681 102.393C373.681 101.245 373.912 100.237 374.374 99.369C374.85 98.487 375.501 97.801 376.327 97.311C377.167 96.807 378.126 96.555 379.204 96.555ZM390.114 96.555C390.912 96.555 391.605 96.639 392.193 96.807C392.795 96.975 393.257 97.213 393.579 97.521C393.915 97.815 394.083 98.172 394.083 98.592C394.083 98.872 393.999 99.138 393.831 99.39C393.663 99.628 393.418 99.747 393.096 99.747C392.872 99.747 392.683 99.719 392.529 99.663C392.389 99.593 392.263 99.509 392.151 99.411C392.039 99.313 391.906 99.222 391.752 99.138C391.612 99.054 391.395 98.991 391.101 98.949C390.821 98.893 390.611 98.865 390.471 98.865C389.757 98.865 389.148 99.019 388.644 99.327C388.154 99.635 387.776 100.055 387.51 100.587C387.244 101.105 387.111 101.707 387.111 102.393C387.111 103.065 387.244 103.667 387.51 104.199C387.79 104.717 388.168 105.13 388.644 105.438C389.134 105.746 389.694 105.9 390.324 105.9C390.674 105.9 390.975 105.879 391.227 105.837C391.479 105.795 391.689 105.732 391.857 105.648C392.053 105.536 392.228 105.417 392.382 105.291C392.536 105.165 392.767 105.102 393.075 105.102C393.439 105.102 393.719 105.221 393.915 105.459C394.111 105.683 394.209 105.963 394.209 106.299C394.209 106.649 394.013 106.971 393.621 107.265C393.229 107.545 392.711 107.776 392.067 107.958C391.437 108.126 390.751 108.21 390.009 108.21C388.903 108.21 387.944 107.958 387.132 107.454C386.32 106.936 385.69 106.236 385.242 105.354C384.808 104.472 384.591 103.485 384.591 102.393C384.591 101.245 384.822 100.237 385.284 99.369C385.76 98.487 386.411 97.801 387.237 97.311C388.077 96.807 389.036 96.555 390.114 96.555ZM401.318 108.21C400.128 108.21 399.092 107.965 398.21 107.475C397.342 106.971 396.67 106.292 396.194 105.438C395.732 104.584 395.501 103.618 395.501 102.54C395.501 101.28 395.753 100.209 396.257 99.327C396.775 98.431 397.447 97.745 398.273 97.269C399.099 96.793 399.974 96.555 400.898 96.555C401.612 96.555 402.284 96.702 402.914 96.996C403.558 97.29 404.125 97.696 404.615 98.214C405.105 98.718 405.49 99.306 405.77 99.978C406.064 100.65 406.211 101.364 406.211 102.12C406.197 102.456 406.064 102.729 405.812 102.939C405.56 103.149 405.266 103.254 404.93 103.254H396.908L396.278 101.154H403.985L403.523 101.574V101.007C403.495 100.601 403.348 100.237 403.082 99.915C402.83 99.593 402.508 99.341 402.116 99.159C401.738 98.963 401.332 98.865 400.898 98.865C400.478 98.865 400.086 98.921 399.722 99.033C399.358 99.145 399.043 99.334 398.777 99.6C398.511 99.866 398.301 100.223 398.147 100.671C397.993 101.119 397.916 101.686 397.916 102.372C397.916 103.128 398.07 103.772 398.378 104.304C398.7 104.822 399.106 105.221 399.596 105.501C400.1 105.767 400.632 105.9 401.192 105.9C401.71 105.9 402.123 105.858 402.431 105.774C402.739 105.69 402.984 105.592 403.166 105.48C403.362 105.354 403.537 105.249 403.691 105.165C403.943 105.039 404.181 104.976 404.405 104.976C404.713 104.976 404.965 105.081 405.161 105.291C405.371 105.501 405.476 105.746 405.476 106.026C405.476 106.404 405.28 106.747 404.888 107.055C404.524 107.363 404.013 107.636 403.355 107.874C402.697 108.098 402.018 108.21 401.318 108.21ZM407.762 106.257C407.622 106.061 407.559 105.809 407.573 105.501C407.587 105.193 407.769 104.927 408.119 104.703C408.343 104.563 408.581 104.507 408.833 104.535C409.085 104.549 409.33 104.675 409.568 104.913C409.974 105.319 410.401 105.634 410.849 105.858C411.297 106.082 411.857 106.194 412.529 106.194C412.739 106.18 412.97 106.152 413.222 106.11C413.474 106.054 413.691 105.942 413.873 105.774C414.069 105.592 414.167 105.319 414.167 104.955C414.167 104.647 414.062 104.402 413.852 104.22C413.642 104.038 413.362 103.884 413.012 103.758C412.676 103.632 412.298 103.513 411.878 103.401C411.444 103.275 410.996 103.135 410.534 102.981C410.086 102.827 409.673 102.631 409.295 102.393C408.917 102.141 408.609 101.812 408.371 101.406C408.133 101 408.014 100.489 408.014 99.873C408.014 99.173 408.21 98.578 408.602 98.088C408.994 97.598 409.498 97.22 410.114 96.954C410.744 96.688 411.402 96.555 412.088 96.555C412.522 96.555 412.977 96.611 413.453 96.723C413.929 96.821 414.384 96.989 414.818 97.227C415.252 97.451 415.616 97.752 415.91 98.13C416.064 98.34 416.155 98.592 416.183 98.886C416.211 99.18 416.078 99.446 415.784 99.684C415.574 99.852 415.329 99.929 415.049 99.915C414.769 99.887 414.538 99.789 414.356 99.621C414.118 99.313 413.796 99.068 413.39 98.886C412.998 98.704 412.543 98.613 412.025 98.613C411.815 98.613 411.584 98.641 411.332 98.697C411.094 98.739 410.884 98.844 410.702 99.012C410.52 99.166 410.429 99.418 410.429 99.768C410.429 100.09 410.534 100.349 410.744 100.545C410.954 100.727 411.234 100.881 411.584 101.007C411.948 101.119 412.333 101.231 412.739 101.343C413.159 101.455 413.586 101.588 414.02 101.742C414.454 101.896 414.853 102.099 415.217 102.351C415.581 102.603 415.875 102.932 416.099 103.338C416.323 103.73 416.435 104.234 416.435 104.85C416.435 105.564 416.225 106.173 415.805 106.677C415.385 107.181 414.86 107.566 414.23 107.832C413.6 108.084 412.956 108.21 412.298 108.21C411.472 108.21 410.646 108.07 409.82 107.79C408.994 107.496 408.308 106.985 407.762 106.257ZM417.893 106.257C417.753 106.061 417.69 105.809 417.704 105.501C417.718 105.193 417.9 104.927 418.25 104.703C418.474 104.563 418.712 104.507 418.964 104.535C419.216 104.549 419.461 104.675 419.699 104.913C420.105 105.319 420.532 105.634 420.98 105.858C421.428 106.082 421.988 106.194 422.66 106.194C422.87 106.18 423.101 106.152 423.353 106.11C423.605 106.054 423.822 105.942 424.004 105.774C424.2 105.592 424.298 105.319 424.298 104.955C424.298 104.647 424.193 104.402 423.983 104.22C423.773 104.038 423.493 103.884 423.143 103.758C422.807 103.632 422.429 103.513 422.009 103.401C421.575 103.275 421.127 103.135 420.665 102.981C420.217 102.827 419.804 102.631 419.426 102.393C419.048 102.141 418.74 101.812 418.502 101.406C418.264 101 418.145 100.489 418.145 99.873C418.145 99.173 418.341 98.578 418.733 98.088C419.125 97.598 419.629 97.22 420.245 96.954C420.875 96.688 421.533 96.555 422.219 96.555C422.653 96.555 423.108 96.611 423.584 96.723C424.06 96.821 424.515 96.989 424.949 97.227C425.383 97.451 425.747 97.752 426.041 98.13C426.195 98.34 426.286 98.592 426.314 98.886C426.342 99.18 426.209 99.446 425.915 99.684C425.705 99.852 425.46 99.929 425.18 99.915C424.9 99.887 424.669 99.789 424.487 99.621C424.249 99.313 423.927 99.068 423.521 98.886C423.129 98.704 422.674 98.613 422.156 98.613C421.946 98.613 421.715 98.641 421.463 98.697C421.225 98.739 421.015 98.844 420.833 99.012C420.651 99.166 420.56 99.418 420.56 99.768C420.56 100.09 420.665 100.349 420.875 100.545C421.085 100.727 421.365 100.881 421.715 101.007C422.079 101.119 422.464 101.231 422.87 101.343C423.29 101.455 423.717 101.588 424.151 101.742C424.585 101.896 424.984 102.099 425.348 102.351C425.712 102.603 426.006 102.932 426.23 103.338C426.454 103.73 426.566 104.234 426.566 104.85C426.566 105.564 426.356 106.173 425.936 106.677C425.516 107.181 424.991 107.566 424.361 107.832C423.731 108.084 423.087 108.21 422.429 108.21C421.603 108.21 420.777 108.07 419.951 107.79C419.125 107.496 418.439 106.985 417.893 106.257ZM439.574 102.393C439.574 103.541 439.315 104.556 438.797 105.438C438.293 106.306 437.607 106.985 436.739 107.475C435.885 107.965 434.926 108.21 433.862 108.21C432.798 108.21 431.832 107.965 430.964 107.475C430.11 106.985 429.424 106.306 428.906 105.438C428.402 104.556 428.15 103.541 428.15 102.393C428.15 101.245 428.402 100.237 428.906 99.369C429.424 98.487 430.11 97.801 430.964 97.311C431.832 96.807 432.798 96.555 433.862 96.555C434.926 96.555 435.885 96.807 436.739 97.311C437.607 97.801 438.293 98.487 438.797 99.369C439.315 100.237 439.574 101.245 439.574 102.393ZM437.054 102.393C437.054 101.679 436.907 101.063 436.613 100.545C436.333 100.013 435.948 99.6 435.458 99.306C434.982 99.012 434.45 98.865 433.862 98.865C433.274 98.865 432.735 99.012 432.245 99.306C431.769 99.6 431.384 100.013 431.09 100.545C430.81 101.063 430.67 101.679 430.67 102.393C430.67 103.093 430.81 103.709 431.09 104.241C431.384 104.759 431.769 105.165 432.245 105.459C432.735 105.753 433.274 105.9 433.862 105.9C434.45 105.9 434.982 105.753 435.458 105.459C435.948 105.165 436.333 104.759 436.613 104.241C436.907 103.709 437.054 103.093 437.054 102.393ZM443.039 108C442.675 108 442.374 107.881 442.136 107.643C441.898 107.391 441.779 107.083 441.779 106.719V98.046C441.779 97.682 441.898 97.381 442.136 97.143C442.374 96.891 442.675 96.765 443.039 96.765C443.403 96.765 443.704 96.891 443.942 97.143C444.18 97.381 444.299 97.682 444.299 98.046V100.02L444.152 98.613C444.306 98.277 444.502 97.983 444.74 97.731C444.992 97.465 445.272 97.248 445.58 97.08C445.888 96.898 446.217 96.765 446.567 96.681C446.917 96.597 447.267 96.555 447.617 96.555C448.037 96.555 448.387 96.674 448.667 96.912C448.961 97.15 449.108 97.43 449.108 97.752C449.108 98.214 448.989 98.55 448.751 98.76C448.513 98.956 448.254 99.054 447.974 99.054C447.708 99.054 447.463 99.005 447.239 98.907C447.029 98.809 446.784 98.76 446.504 98.76C446.252 98.76 445.993 98.823 445.727 98.949C445.475 99.061 445.237 99.243 445.013 99.495C444.803 99.747 444.628 100.062 444.488 100.44C444.362 100.804 444.299 101.238 444.299 101.742V106.719C444.299 107.083 444.18 107.391 443.942 107.643C443.704 107.881 443.403 108 443.039 108ZM453.258 106.719C453.258 107.083 453.139 107.391 452.901 107.643C452.663 107.881 452.362 108 451.998 108C451.634 108 451.333 107.881 451.095 107.643C450.857 107.391 450.738 107.083 450.738 106.719V98.046C450.738 97.682 450.857 97.381 451.095 97.143C451.333 96.891 451.634 96.765 451.998 96.765C452.362 96.765 452.663 96.891 452.901 97.143C453.139 97.381 453.258 97.682 453.258 98.046V106.719ZM451.977 95.4C451.501 95.4 451.165 95.323 450.969 95.169C450.773 95.015 450.675 94.742 450.675 94.35V93.951C450.675 93.545 450.78 93.272 450.99 93.132C451.214 92.978 451.55 92.901 451.998 92.901C452.488 92.901 452.831 92.978 453.027 93.132C453.223 93.286 453.321 93.559 453.321 93.951V94.35C453.321 94.756 453.216 95.036 453.006 95.19C452.796 95.33 452.453 95.4 451.977 95.4ZM461.139 108.21C459.949 108.21 458.913 107.965 458.031 107.475C457.163 106.971 456.491 106.292 456.015 105.438C455.553 104.584 455.322 103.618 455.322 102.54C455.322 101.28 455.574 100.209 456.078 99.327C456.596 98.431 457.268 97.745 458.094 97.269C458.92 96.793 459.795 96.555 460.719 96.555C461.433 96.555 462.105 96.702 462.735 96.996C463.379 97.29 463.946 97.696 464.436 98.214C464.926 98.718 465.311 99.306 465.591 99.978C465.885 100.65 466.032 101.364 466.032 102.12C466.018 102.456 465.885 102.729 465.633 102.939C465.381 103.149 465.087 103.254 464.751 103.254H456.729L456.099 101.154H463.806L463.344 101.574V101.007C463.316 100.601 463.169 100.237 462.903 99.915C462.651 99.593 462.329 99.341 461.937 99.159C461.559 98.963 461.153 98.865 460.719 98.865C460.299 98.865 459.907 98.921 459.543 99.033C459.179 99.145 458.864 99.334 458.598 99.6C458.332 99.866 458.122 100.223 457.968 100.671C457.814 101.119 457.737 101.686 457.737 102.372C457.737 103.128 457.891 103.772 458.199 104.304C458.521 104.822 458.927 105.221 459.417 105.501C459.921 105.767 460.453 105.9 461.013 105.9C461.531 105.9 461.944 105.858 462.252 105.774C462.56 105.69 462.805 105.592 462.987 105.48C463.183 105.354 463.358 105.249 463.512 105.165C463.764 105.039 464.002 104.976 464.226 104.976C464.534 104.976 464.786 105.081 464.982 105.291C465.192 105.501 465.297 105.746 465.297 106.026C465.297 106.404 465.101 106.747 464.709 107.055C464.345 107.363 463.834 107.636 463.176 107.874C462.518 108.098 461.839 108.21 461.139 108.21ZM467.583 106.257C467.443 106.061 467.38 105.809 467.394 105.501C467.408 105.193 467.59 104.927 467.94 104.703C468.164 104.563 468.402 104.507 468.654 104.535C468.906 104.549 469.151 104.675 469.389 104.913C469.795 105.319 470.222 105.634 470.67 105.858C471.118 106.082 471.678 106.194 472.35 106.194C472.56 106.18 472.791 106.152 473.043 106.11C473.295 106.054 473.512 105.942 473.694 105.774C473.89 105.592 473.988 105.319 473.988 104.955C473.988 104.647 473.883 104.402 473.673 104.22C473.463 104.038 473.183 103.884 472.833 103.758C472.497 103.632 472.119 103.513 471.699 103.401C471.265 103.275 470.817 103.135 470.355 102.981C469.907 102.827 469.494 102.631 469.116 102.393C468.738 102.141 468.43 101.812 468.192 101.406C467.954 101 467.835 100.489 467.835 99.873C467.835 99.173 468.031 98.578 468.423 98.088C468.815 97.598 469.319 97.22 469.935 96.954C470.565 96.688 471.223 96.555 471.909 96.555C472.343 96.555 472.798 96.611 473.274 96.723C473.75 96.821 474.205 96.989 474.639 97.227C475.073 97.451 475.437 97.752 475.731 98.13C475.885 98.34 475.976 98.592 476.004 98.886C476.032 99.18 475.899 99.446 475.605 99.684C475.395 99.852 475.15 99.929 474.87 99.915C474.59 99.887 474.359 99.789 474.177 99.621C473.939 99.313 473.617 99.068 473.211 98.886C472.819 98.704 472.364 98.613 471.846 98.613C471.636 98.613 471.405 98.641 471.153 98.697C470.915 98.739 470.705 98.844 470.523 99.012C470.341 99.166 470.25 99.418 470.25 99.768C470.25 100.09 470.355 100.349 470.565 100.545C470.775 100.727 471.055 100.881 471.405 101.007C471.769 101.119 472.154 101.231 472.56 101.343C472.98 101.455 473.407 101.588 473.841 101.742C474.275 101.896 474.674 102.099 475.038 102.351C475.402 102.603 475.696 102.932 475.92 103.338C476.144 103.73 476.256 104.234 476.256 104.85C476.256 105.564 476.046 106.173 475.626 106.677C475.206 107.181 474.681 107.566 474.051 107.832C473.421 108.084 472.777 108.21 472.119 108.21C471.293 108.21 470.467 108.07 469.641 107.79C468.815 107.496 468.129 106.985 467.583 106.257Z" fill="white"/>
</g>
<defs>
<clipPath id="clip0_35_147">
<rect width="477" height="148" fill="white"/>
</clipPath>
</defs>
</svg>
