<svg xmlns="http://www.w3.org/2000/svg" xmlns:xlink="http://www.w3.org/1999/xlink" width="500" zoomAndPan="magnify" viewBox="0 0 375 374.999991" height="500" preserveAspectRatio="xMidYMid meet" version="1.0"><defs><clipPath id="e1ff67281c"><path d="M 10.546875 10.546875 L 364.546875 10.546875 L 364.546875 364.546875 L 10.546875 364.546875 Z M 10.546875 10.546875 " clip-rule="nonzero"/></clipPath></defs><g clip-path="url(#e1ff67281c)"><path fill="#465462" d="M 262.800781 187.480469 C 262.800781 207.613281 254.925781 226.53125 240.722656 240.765625 C 226.5 255.015625 207.554688 262.863281 187.414062 262.863281 C 167.277344 262.863281 148.34375 255.019531 134.125 240.78125 C 119.917969 226.550781 112.089844 207.632812 112.089844 187.503906 C 112.089844 167.371094 119.855469 148.445312 134.082031 134.21875 C 141.328125 126.972656 149.820312 121.386719 158.949219 117.644531 L 158.949219 187.511719 C 158.949219 203.144531 171.707031 215.863281 187.3125 215.863281 C 202.914062 215.863281 215.671875 203.472656 215.679688 187.496094 L 215.722656 187.496094 L 215.722656 60.636719 C 206.597656 58.617188 197.242188 57.550781 187.5625 57.550781 C 115.917969 57.550781 57.675781 115.839844 57.675781 187.472656 L 57.675781 307.578125 C 43.410156 292.496094 32.539062 275.296875 24.519531 256.355469 C 15.296875 234.527344 10.585938 211.351562 10.585938 187.480469 C 10.585938 163.609375 15.253906 140.4375 24.484375 118.605469 C 33.394531 97.535156 46.140625 78.609375 62.386719 62.371094 C 78.625 46.132812 97.542969 33.375 118.613281 24.464844 C 140.441406 15.234375 163.609375 10.546875 187.488281 10.546875 C 197.015625 10.546875 206.429688 11.296875 215.6875 12.777344 C 229.640625 15.007812 243.300781 18.914062 256.414062 24.464844 C 258.550781 25.363281 260.519531 26.308594 262.800781 27.289062 Z M 187.429688 364.40625 C 211.300781 364.40625 234.527344 359.722656 256.355469 350.492188 C 277.425781 341.582031 296.34375 328.828125 312.582031 312.582031 C 328.820312 296.34375 341.574219 277.425781 350.484375 256.351562 C 359.714844 234.519531 364.386719 211.351562 364.386719 187.472656 C 364.386719 163.59375 359.671875 140.429688 350.441406 118.597656 C 342.429688 99.65625 331.558594 82.453125 317.289062 67.375 L 317.289062 187.472656 C 317.289062 259.117188 258.957031 317.398438 187.320312 317.398438 C 159.230469 317.398438 133.566406 308.4375 111.878906 293.226562 L 111.878906 347.574219 C 114.160156 348.582031 116.304688 349.554688 118.503906 350.484375 C 140.335938 359.722656 163.558594 364.40625 187.429688 364.40625 Z M 187.429688 364.40625 " fill-opacity="1" fill-rule="nonzero"/></g></svg>