<svg width="500" height="500" viewBox="0 0 500 500" fill="none" xmlns="http://www.w3.org/2000/svg">
<g clip-path="url(#clip0_210_2221)">
<mask id="mask0_210_2221" style="mask-type:luminance" maskUnits="userSpaceOnUse" x="0" y="0" width="500" height="500">
<path d="M500 0H0V500H500V0Z" fill="white"/>
</mask>
<g mask="url(#mask0_210_2221)">
<path d="M87.2101 86.8398H412.79C452.201 86.8398 484.15 118.789 484.15 158.2V372.28C484.15 411.691 452.201 443.64 412.79 443.64H87.2101C47.7993 443.64 15.8501 411.691 15.8501 372.28V158.2C15.8501 118.789 47.7993 86.8398 87.2101 86.8398Z" fill="#FFF7FB"/>
<mask id="mask1_210_2221" style="mask-type:alpha" maskUnits="userSpaceOnUse" x="15" y="86" width="470" height="358">
<path d="M87.2101 86.8398H412.79C452.201 86.8398 484.15 118.789 484.15 158.2V372.28C484.15 411.691 452.201 443.64 412.79 443.64H87.2101C47.7993 443.64 15.8501 411.691 15.8501 372.28V158.2C15.8501 118.789 47.7993 86.8398 87.2101 86.8398Z" fill="#EEFAFF"/>
</mask>
<g mask="url(#mask1_210_2221)">
<mask id="mask2_210_2221" style="mask-type:luminance" maskUnits="userSpaceOnUse" x="-25" y="40" width="501" height="501">
<path d="M-24.75 40.25H475.25V540.25H-24.75V40.25Z" fill="white"/>
</mask>
<g mask="url(#mask2_210_2221)">
<path d="M395.159 448.574C383.971 463.024 368.773 473.411 350.521 476.449C328.499 480.121 304.482 474.475 282.593 471.786L176.873 462.605C164.777 472.791 155.019 480.108 155.864 480.429C155.864 480.429 361.303 495.479 361.47 495.37C365.745 492.77 399.478 464.534 401.777 464.893C403.7 465.194 411.311 461.03 419.408 461.994C419.967 457.743 418.774 462.81 419.334 458.56C420.873 446.883 402.402 439.219 395.159 448.574Z" fill="#470D00"/>
<path d="M453.274 220.176C448.41 222.859 444.669 227.199 442.738 232.408C440.805 227.202 437.066 222.859 432.202 220.176C437.064 217.491 440.805 213.152 442.738 207.944C444.671 213.152 448.412 217.493 453.274 220.176Z" fill="#FFD900"/>
<path d="M467.994 199.541C466.326 200.462 465.042 201.95 464.38 203.737C463.716 201.95 462.43 200.462 460.762 199.541C462.432 198.619 463.716 197.131 464.38 195.345C465.042 197.131 466.326 198.619 467.994 199.541Z" fill="#FFD900"/>
<path d="M449.367 190.95C446.568 192.494 444.417 194.991 443.306 197.988C442.194 194.991 440.043 192.494 437.245 190.95C440.041 189.406 442.192 186.907 443.306 183.912C444.417 186.909 446.568 189.406 449.367 190.95Z" fill="#FFD900"/>
<path d="M95.0981 192.446C99.9626 189.764 103.699 185.425 105.63 180.217C107.564 185.423 111.302 189.764 116.167 192.446C111.304 195.131 107.566 199.474 105.63 204.68C103.697 199.472 99.9606 195.129 95.0981 192.446Z" fill="#FFD900"/>
<path d="M88.6562 208.942C90.3247 208.021 91.6081 206.534 92.2705 204.748C92.9349 206.534 94.2204 208.021 95.8888 208.942C94.2204 209.863 92.9349 211.353 92.2705 213.14C91.6081 211.353 90.3247 209.863 88.6562 208.942Z" fill="#FFD900"/>
<path d="M377.767 135.902C379.193 135.115 380.29 133.842 380.858 132.314C381.425 133.842 382.522 135.115 383.948 135.902C382.522 136.688 381.425 137.961 380.858 139.489C380.29 137.961 379.193 136.688 377.767 135.902Z" fill="#FFD900"/>
<path d="M367.958 159.891C370.528 158.473 372.501 156.182 373.522 153.431C374.544 156.182 376.519 158.473 379.09 159.891C376.519 161.309 374.544 163.603 373.522 166.356C372.501 163.603 370.528 161.309 367.958 159.891Z" fill="#FFD900"/>
<path d="M99.0044 221.673C101.803 220.129 103.954 217.632 105.065 214.635C106.177 217.632 108.328 220.129 111.126 221.673C108.328 223.217 106.177 225.715 105.065 228.711C103.954 225.715 101.803 223.217 99.0044 221.673Z" fill="#FFD900"/>
<path d="M350.424 137.73C354.734 135.353 358.046 131.511 359.758 126.897C361.47 131.511 364.784 135.353 369.092 137.73C364.784 140.108 361.472 143.954 359.758 148.566C358.046 143.952 354.732 140.108 350.424 137.73Z" fill="#FFD900"/>
<path d="M85.6321 186.205C85.7521 185.466 86.4477 184.967 87.1846 185.087C87.9236 185.207 88.4224 185.903 88.3024 186.642C88.1823 187.379 87.4868 187.878 86.7499 187.757C86.0109 187.637 85.512 186.944 85.6321 186.205Z" fill="#FFD900"/>
<path d="M346.16 121.151C346.758 121.151 347.243 121.636 347.243 122.234C347.243 122.832 346.758 123.317 346.16 123.317C345.562 123.317 345.078 122.832 345.078 122.234C345.078 121.636 345.562 121.151 346.16 121.151Z" fill="#FFD900"/>
<path d="M186.097 140.833C186.594 140.086 187.606 139.885 188.354 140.382C189.099 140.881 189.302 141.889 188.803 142.636C188.306 143.383 187.294 143.586 186.549 143.09C185.801 142.591 185.601 141.581 186.097 140.833Z" fill="#FFD900"/>
<path d="M106.086 254.015C106.75 253.205 107.945 253.087 108.754 253.752C109.563 254.414 109.681 255.609 109.017 256.418C108.352 257.229 107.158 257.347 106.349 256.683C105.539 256.018 105.421 254.824 106.086 254.015Z" fill="#FFD900"/>
<path d="M396.267 168.819C397.014 168.819 397.621 169.426 397.621 170.173C397.621 170.92 397.014 171.527 396.267 171.527C395.52 171.527 394.913 170.92 394.913 170.173C394.913 169.426 395.52 168.819 396.267 168.819Z" fill="#FFD900"/>
<path d="M428.004 182.103C428.639 181.467 429.668 181.467 430.302 182.103C430.937 182.738 430.937 183.767 430.302 184.4C429.668 185.036 428.639 185.036 428.004 184.4C427.368 183.767 427.368 182.738 428.004 182.103Z" fill="#FFD900"/>
<path d="M465.421 226.109C465.661 225.091 466.684 224.459 467.702 224.699C468.721 224.94 469.352 225.964 469.112 226.983C468.872 228.001 467.849 228.632 466.831 228.392C465.812 228.152 465.181 227.128 465.421 226.109Z" fill="#FFD900"/>
<path d="M242.43 128.736C243.178 128.736 243.784 129.343 243.784 130.09C243.784 130.837 243.178 131.444 242.43 131.444C241.683 131.444 241.077 130.837 241.077 130.09C241.077 129.343 241.683 128.736 242.43 128.736Z" fill="#FFD900"/>
<mask id="mask3_210_2221" style="mask-type:luminance" maskUnits="userSpaceOnUse" x="9" y="55" width="501" height="501">
<path d="M9.25 55.25H509.25V555.25H9.25V55.25Z" fill="white"/>
</mask>
<g mask="url(#mask3_210_2221)">
<path d="M398.111 353.357L253.266 339.68L154.031 371.433L150.885 234.166L247.981 212.577L397.017 220.016L398.111 353.357Z" fill="#FFD55C"/>
<path d="M249.121 212.582L254.403 339.692L399.249 353.371L398.158 220.03L249.121 212.582Z" fill="#E09D17"/>
<path d="M342.473 388.014L155.788 371.777L152.644 234.512L339.128 246.286L398.774 220.362L399.871 353.692L342.473 388.014Z" fill="#FFD55C"/>
<path d="M398.149 220.017L338.503 245.94C339.451 255.293 341.848 387.668 341.848 387.668L399.249 353.348L398.149 220.017Z" fill="#FFC840"/>
<path d="M-269.751 -250.75H845.249V864.25H-269.751V-250.75ZM-269.751 864.25H845.249V-250.75H-269.751V864.25Z" fill="#7F7F7F"/>
<path d="M-269.751 -250.75H845.249V864.25H-269.751V-250.75ZM-269.751 864.25H845.249V-250.75H-269.751V864.25Z" fill="#7F7F7F"/>
<path d="M337.91 245.94L151.424 234.168L248.507 211.215L397.554 220.021L337.91 245.94Z" fill="#FEE697"/>
<path d="M230.911 378.4L256.527 380.641L256.484 240.74L323.279 215.341L305.625 214.297L229.767 238.934L230.911 378.4Z" fill="white"/>
<path d="M229.769 238.859L230.908 378.359L256.529 380.598L256.484 240.686C256.484 240.686 235.161 239.39 229.769 238.859Z" fill="#FFF3D2"/>
<path d="M200.663 264.289L154.868 260.893L154.377 238.979L200.779 241.766L200.663 264.289Z" fill="white"/>
<path d="M296.703 459.455L151.858 445.778L52.6231 477.531L49.4766 340.263L146.573 318.675L295.608 326.114L296.703 459.455Z" fill="#FFD55C"/>
<path d="M147.713 318.68L152.996 445.79L297.841 459.469L296.75 326.128L147.713 318.68Z" fill="#E09D17"/>
<path d="M241.065 494.111L54.3806 477.875L51.2363 340.609L237.72 352.384L297.366 326.46L298.463 459.789L241.065 494.111Z" fill="#FFD55C"/>
<path d="M296.742 326.114L237.096 352.038C238.043 361.391 240.441 493.766 240.441 493.766L297.841 459.446L296.742 326.114Z" fill="#FFC840"/>
<path d="M-371.159 -144.652H743.841V970.348H-371.159V-144.652ZM-371.159 970.348H743.841V-144.652H-371.159V970.348Z" fill="#7F7F7F"/>
<path d="M-371.159 -144.652H743.841V970.348H-371.159V-144.652ZM-371.159 970.348H743.841V-144.652H-371.159V970.348Z" fill="#7F7F7F"/>
<path d="M236.503 352.038L50.0166 340.266L147.1 317.312L296.146 326.119L236.503 352.038Z" fill="#FEE697"/>
<path d="M129.502 484.498L155.118 486.739L155.076 346.838L221.871 321.438L204.216 320.395L128.358 345.032L129.502 484.498Z" fill="white"/>
<path d="M128.361 344.958L129.5 484.458L155.121 486.697L155.076 346.784C155.076 346.784 133.753 345.489 128.361 344.958Z" fill="#FFF3D2"/>
<path d="M99.2546 370.387L53.4594 366.99L52.9688 345.076L99.3706 347.864L99.2546 370.387Z" fill="white"/>
<path d="M446.448 452.274L300.304 438.475L200.179 470.512L197.004 332.014L294.971 310.231L445.343 317.737L446.448 452.274Z" fill="#FFD55C"/>
<path d="M296.121 310.235L301.451 438.485L447.596 452.287L446.495 317.75L296.121 310.235Z" fill="#E09D17"/>
<path d="M390.311 487.241L201.952 470.859L198.779 332.362L386.936 344.242L447.116 318.086L448.223 452.611L390.311 487.241Z" fill="#FFD55C"/>
<path d="M446.486 317.737L386.306 343.894C387.262 353.33 389.681 486.892 389.681 486.892L447.596 452.265L446.486 317.737Z" fill="#FFC840"/>
<path d="M-227.405 -157.251H897.595V967.749H-227.405V-157.251ZM-227.405 967.749H897.595V-157.251H-227.405V967.749Z" fill="#7F7F7F"/>
<path d="M-227.405 -157.251H897.595V967.749H-227.405V-157.251ZM-227.405 967.749H897.595V-157.251H-227.405V967.749Z" fill="#7F7F7F"/>
<path d="M385.707 343.893L197.548 332.016L295.502 308.856L445.885 317.742L385.707 343.893Z" fill="#FEE697"/>
<path d="M277.748 477.541L303.593 479.802L303.551 338.646L370.945 313.019L353.132 311.966L276.593 336.824L277.748 477.541Z" fill="white"/>
<path d="M276.596 336.75L277.745 477.501L303.596 479.76L303.551 338.593C303.551 338.593 282.036 337.286 276.596 336.75Z" fill="#FFF3D2"/>
<path d="M247.228 362.407L201.022 358.98L200.527 336.869L247.345 339.682L247.228 362.407Z" fill="white"/>
</g>
<path d="M243.827 109.293C269.075 109.293 289.542 129.76 289.542 155.008C289.542 180.256 269.075 200.723 243.827 200.723C218.579 200.723 198.112 180.256 198.112 155.008C198.112 129.76 218.579 109.293 243.827 109.293Z" fill="#048848"/>
<path d="M222.999 155.867L237.761 171.117L267.512 140.383" stroke="white" stroke-width="9.23323" stroke-linecap="round" stroke-linejoin="round"/>
</g>
</g>
</g>
</g>
<defs>
<clipPath id="clip0_210_2221">
<rect width="500" height="500" fill="white"/>
</clipPath>
</defs>
</svg>
