<svg xmlns="http://www.w3.org/2000/svg" xmlns:xlink="http://www.w3.org/1999/xlink" width="500" zoomAndPan="magnify" viewBox="0 0 375 374.999991" height="500" preserveAspectRatio="xMidYMid meet" version="1.2"><defs><clipPath id="e3954d461c"><path d="M 75 0 L 300 0 C 341.421875 0 375 33.578125 375 75 L 375 300 C 375 341.421875 341.421875 375 300 375 L 75 375 C 33.578125 375 0 341.421875 0 300 L 0 75 C 0 33.578125 33.578125 0 75 0 Z M 75 0 "/></clipPath><clipPath id="ba067c6ed0"><path d="M 75 0 L 300 0 C 341.421875 0 375 33.578125 375 75 L 375 300 C 375 341.421875 341.421875 375 300 375 L 75 375 C 33.578125 375 0 341.421875 0 300 L 0 75 C 0 33.578125 33.578125 0 75 0 Z M 75 0 "/></clipPath><clipPath id="f67aa3d868"><rect x="0" width="375" y="0" height="375"/></clipPath><clipPath id="2ef4870d00"><path d="M 20.421875 74.351562 L 179 74.351562 L 179 300.640625 L 20.421875 300.640625 Z M 20.421875 74.351562 "/></clipPath><clipPath id="69fe4735b8"><path d="M 144 74.351562 L 351.472656 74.351562 L 351.472656 300.640625 L 144 300.640625 Z M 144 74.351562 "/></clipPath></defs><g id="27ec44dc45"><g clip-rule="nonzero" clip-path="url(#e3954d461c)"><g transform="matrix(1,0,0,1,0,0)"><g clip-path="url(#f67aa3d868)"><g clip-rule="nonzero" clip-path="url(#ba067c6ed0)"><rect x="0" width="375" height="375" y="0" style="fill:#ffffff;fill-opacity:1;stroke:none;"/></g></g></g><path style="fill:none;stroke-width:18;stroke-linecap:butt;stroke-linejoin:miter;stroke:#ffde59;stroke-opacity:1;stroke-miterlimit:4;" d="M 100.000007 0 L 400.000046 0 C 455.22922 0 500.000059 44.770839 500.000059 100.000013 L 500.000059 400.000052 C 500.000059 455.229226 455.22922 500.000065 400.000046 500.000065 L 100.000007 500.000065 C 44.770833 500.000065 -0.000006 455.229226 -0.000006 400.000052 L -0.000006 100.000013 C -0.000006 44.770839 44.770833 0 100.000007 0 Z M 100.000007 0 " transform="matrix(0.75,0,0,0.75,0.0000045,0)"/></g><g clip-rule="nonzero" clip-path="url(#2ef4870d00)"><path style=" stroke:none;fill-rule:nonzero;fill:#000000;fill-opacity:1;" d="M 178.410156 106.050781 L 175.808594 118.765625 L 171.585938 139.445312 L 152.816406 128.972656 L 154.554688 118.765625 L 115.867188 118.765625 L 106.527344 161.511719 L 63.019531 161.511719 L 72.578125 171.726562 L 98.28125 199.183594 L 85.589844 257.210938 L 124.710938 257.210938 L 131.953125 221.753906 L 133.535156 214.007812 L 124.691406 214.007812 L 100.65625 188.332031 L 85.117188 171.726562 L 164.988281 171.726562 L 156.355469 214.007812 L 147.527344 257.214844 L 138.65625 300.648438 L 33.425781 300.648438 C 26.246094 300.648438 20.421875 294.824219 20.421875 287.644531 C 20.421875 286.773438 20.511719 285.917969 20.675781 285.089844 C 20.6875 285.042969 20.695312 285 20.703125 284.953125 L 26.5 257.214844 L 44.367188 171.730469 L 46.496094 161.515625 L 49.515625 147.09375 L 51.800781 136.148438 L 51.800781 136.140625 L 55.429688 118.769531 L 64.710938 74.351562 L 152.269531 74.351562 Z M 178.410156 106.050781 "/></g><g clip-rule="nonzero" clip-path="url(#69fe4735b8)"><path style=" stroke:none;fill-rule:nonzero;fill:#ffde59;fill-opacity:1;" d="M 351.472656 87.363281 C 351.472656 87.484375 351.472656 87.609375 351.460938 87.730469 L 350.480469 92.367188 L 344.867188 118.761719 L 333.601562 171.71875 L 326.570312 204.808594 L 284.542969 225.558594 L 279.15625 228.214844 L 256.050781 239.636719 L 238.621094 248.242188 L 226.292969 201.578125 L 248.363281 190.871094 L 254.605469 187.839844 L 271.648438 179.578125 L 273.691406 171.71875 L 287.4375 118.757812 L 240.445312 118.757812 L 232.160156 159.570312 L 230.257812 168.921875 L 229.691406 171.714844 L 226.636719 186.753906 L 211.023438 199.433594 L 213.46875 207.789062 L 218.71875 225.746094 L 212.332031 257.199219 L 203.503906 300.632812 L 144.296875 300.632812 L 154.113281 257.199219 L 173.445312 171.714844 L 185.417969 118.753906 L 185.929688 117.085938 L 186.164062 115.449219 L 188.597656 104.6875 L 180.707031 94.75 L 164.507812 74.351562 L 338.472656 74.351562 C 345.652344 74.351562 351.472656 80.175781 351.472656 87.363281 Z M 351.472656 87.363281 "/></g></g></svg>